<svg version="1.1" viewBox="0 0 135.47 135.47" xmlns="http://www.w3.org/2000/svg">
 <path class="fa-primary" d="m66.124 134.83-0.74218-0.63812-0.13227-8.7895c-0.13227-8.788-0.13244-8.7893-0.62097-7.7606-2.6861 5.6568-10.501 11.843-18.639 14.754-3.3611 1.2024-3.7782 0.95608-3.2818-1.9389 0.48872-2.8496 1.9083-6.7941 3.7989-10.555 1.538-3.0595 1.698-3.507 1.1989-3.3541-1.2065 0.36983-10.993 0.47616-13.986 0.15189-7.4561-0.8076-15.879-3.1601-23.013-6.4273-1.775-0.81305-2.3549-1.2124-2.5427-1.7512-0.42912-1.2308 0.03789-1.819 2.2557-2.8366 9.2263-4.2353 17.954-6.3695 28.139-6.8806l3.5871-0.17988-3.0632-2.0555c-14.041-9.4218-27.273-25.219-36.036-43.022-2.8981-5.8875-2.5765-6.2367 3.6469-3.9612 19.882 7.2699 37.645 19.429 48.756 33.376 1.3923 1.7476 1.6571 1.978 1.5205 1.3227-1.2084-5.7984-1.5413-7.5532-1.8817-9.9195-0.81528-5.668-1.0155-9.7463-0.8747-17.818 0.14336-8.2207 0.45449-11.843 1.6428-19.132 1.7668-10.838 5.0947-22.624 9.246-32.747 2.4953-6.0846 2.8158-6.1268 5.0558-0.66526 4.5017 10.976 8.127 24.019 9.7771 35.176 0.9381 6.3428 1.2336 10.051 1.3706 17.199 0.1966 10.255-0.44181 17.396-2.2644 25.328-0.40951 1.7823-0.71746 3.2404-0.68451 3.2404 0.0329 0 0.98511-1.1607 2.1159-2.5791 2.901-3.6393 9.6635-10.294 13.873-13.652 9.8478-7.8554 21.584-14.387 34.495-19.196 2.0211-0.75281 3.9722-1.3329 4.3358-1.2889 1.2453 0.15019 1.314 0.79565 0.30869 2.9-9.1227 19.095-22.721 35.644-37.366 45.476l-3.12 2.0948h1.5846c4.9474 0 12.283 1.0303 17.973 2.5243 5.6359 1.48 14.06 4.8684 14.417 5.7991 0.30971 0.80691 0.18169 1.6377-0.3226 2.0942-0.75021 0.67874-6.6127 3.1338-10.483 4.3896-8.1678 2.6503-14.383 3.5755-22.616 3.3666-2.9825-0.0751-5.683-0.21999-6.0011-0.32085-0.50281-0.15872-0.3571 0.25412 1.1136 3.1582 2.6031 5.14 4.6368 12.007 3.8403 12.966-0.47268 0.56969-1.2611 0.51371-3.2198-0.22835-8.7847-3.3283-15.328-8.5378-18.966-15.101-0.2199-0.3968-0.29532 1.5073-0.30128 7.6134-0.01024 6.4085-0.08806 8.3333-0.38241 9.0385-0.65399 1.5652-2.2253 1.9362-3.5126 0.82961z" fill="currentColor"/>
</svg>
