<?xml version="1.0" encoding="UTF-8" standalone="no"?>
<!-- Created with Inkscape (http://www.inkscape.org/) -->

<svg
   width="512"
   height="512"
   viewBox="0 0 135.46666 135.46667"
   version="1.1"
   id="svg5"
   inkscape:version="1.1 (c68e22c387, 2021-05-23)"
   sodipodi:docname="cannabis.svg"
   xmlns:inkscape="http://www.inkscape.org/namespaces/inkscape"
   xmlns:sodipodi="http://sodipodi.sourceforge.net/DTD/sodipodi-0.dtd"
   xmlns="http://www.w3.org/2000/svg"
   xmlns:svg="http://www.w3.org/2000/svg">
  <sodipodi:namedview
     id="namedview7"
     pagecolor="#505050"
     bordercolor="#ffffff"
     borderopacity="1"
     inkscape:pageshadow="0"
     inkscape:pageopacity="0"
     inkscape:pagecheckerboard="1"
     inkscape:document-units="px"
     showgrid="false"
     units="px"
     inkscape:zoom="0.83789063"
     inkscape:cx="91.897436"
     inkscape:cy="63.850816"
     inkscape:window-width="1920"
     inkscape:window-height="1017"
     inkscape:window-x="-8"
     inkscape:window-y="-8"
     inkscape:window-maximized="1"
     inkscape:current-layer="layer1" />
  <defs
     id="defs2" />
  <g
     inkscape:label="Calque 1"
     inkscape:groupmode="layer"
     id="layer1">
    <path
       style="fill:#000000;fill-opacity:1;stroke-width:0.26452"
       d="m 66.124088,134.82953 -0.742178,-0.63812 -0.132267,-8.7895 c -0.132267,-8.78797 -0.132437,-8.78934 -0.620971,-7.76056 -2.68614,5.65675 -10.501206,11.84307 -18.638594,14.75379 -3.36111,1.20235 -3.778219,0.95608 -3.281818,-1.93894 0.488721,-2.84962 1.908275,-6.79407 3.798887,-10.55505 1.537997,-3.05954 1.697997,-3.50703 1.198933,-3.35411 -1.206511,0.36983 -10.992539,0.47616 -13.985896,0.15189 -7.456138,-0.8076 -15.878914,-3.16007 -23.012543,-6.42731 -1.774968,-0.81305 -2.354859,-1.21241 -2.54266,-1.75121 -0.429125,-1.23085 0.03789,-1.81896 2.255701,-2.83665 9.226276,-4.23526 17.954392,-6.369451 28.138773,-6.880601 l 3.587107,-0.17988 -3.063211,-2.05551 C 25.042141,87.145943 11.81025,71.349205 3.047045,53.545768 0.14895402,47.658279 0.47055802,47.309095 6.693936,49.584594 c 19.882311,7.269889 37.64489,19.429037 48.756452,33.375578 1.392282,1.747627 1.657072,1.978027 1.520487,1.322667 -1.208423,-5.798401 -1.541342,-7.553196 -1.881737,-9.91949 -0.815275,-5.668011 -1.015501,-9.746262 -0.874701,-17.817602 0.14336,-8.220673 0.454486,-11.842903 1.642804,-19.132248 1.76681,-10.837505 5.094725,-22.623918 9.246004,-32.7470121 2.495301,-6.0846091 2.815813,-6.1267638 5.055796,-0.665259 4.501697,10.9755751 8.127007,24.0189471 9.777137,35.1762821 0.9381,6.342828 1.23356,10.050903 1.37056,17.198594 0.1966,10.25502 -0.44181,17.395885 -2.26438,25.32762 -0.40951,1.782272 -0.71746,3.240448 -0.68451,3.240448 0.0329,0 0.98511,-1.160704 2.1159,-2.579115 2.90102,-3.639296 9.66347,-10.294273 13.87301,-13.65214 9.847792,-7.855447 21.584082,-14.38652 34.495412,-19.195736 2.02109,-0.752811 3.97216,-1.332907 4.3358,-1.288875 1.24529,0.150187 1.31398,0.795648 0.30869,2.899968 -9.1227,19.094531 -22.72098,35.64408 -37.366192,45.476185 l -3.12003,2.09477 h 1.58461 c 4.94742,0 12.282902,1.03031 17.972822,2.524331 5.63591,1.48002 14.05998,4.86843 14.41709,5.79908 0.30971,0.80691 0.18169,1.63772 -0.3226,2.09425 -0.75021,0.67874 -6.61272,3.13378 -10.48274,4.38955 -8.16776,2.65028 -14.38307,3.57547 -22.616372,3.36657 -2.98249,-0.0751 -5.68296,-0.21999 -6.00109,-0.32085 -0.50281,-0.15872 -0.3571,0.25412 1.11362,3.15818 2.60309,5.13997 4.63676,12.00675 3.84026,12.9664 -0.47268,0.56969 -1.26111,0.51371 -3.21977,-0.22835 -8.78471,-3.32834 -15.32769,-8.53777 -18.96593,-15.10059 -0.219904,-0.3968 -0.295321,1.50733 -0.301278,7.61345 -0.01024,6.40853 -0.08806,8.33331 -0.382413,9.0385 -0.653994,1.56519 -2.225271,1.93622 -3.51261,0.82961 z"
       id="path3642" />
  </g>
</svg>
