<?xml version="1.0" encoding="UTF-8" standalone="no"?>
<!-- Created with Inkscape (http://www.inkscape.org/) -->

<svg
   width="512"
   height="512"
   viewBox="0 0 135.46666 135.46667"
   version="1.1"
   id="svg5"
   inkscape:version="1.1 (c68e22c387, 2021-05-23)"
   sodipodi:docname="cannabis_pouch.svg"
   xmlns:inkscape="http://www.inkscape.org/namespaces/inkscape"
   xmlns:sodipodi="http://sodipodi.sourceforge.net/DTD/sodipodi-0.dtd"
   xmlns="http://www.w3.org/2000/svg"
   xmlns:svg="http://www.w3.org/2000/svg">
  <sodipodi:namedview
     id="namedview7"
     pagecolor="#505050"
     bordercolor="#ffffff"
     borderopacity="1"
     inkscape:pageshadow="0"
     inkscape:pageopacity="0"
     inkscape:pagecheckerboard="1"
     inkscape:document-units="px"
     showgrid="false"
     units="px"
     inkscape:zoom="0.83789063"
     inkscape:cx="91.897436"
     inkscape:cy="63.850816"
     inkscape:window-width="1920"
     inkscape:window-height="1017"
     inkscape:window-x="-8"
     inkscape:window-y="-8"
     inkscape:window-maximized="1"
     inkscape:current-layer="layer1" />
  <defs
     id="defs2" />
  <g
     inkscape:label="Calque 1"
     inkscape:groupmode="layer"
     id="layer1">
    <g
       id="g2560"
       transform="matrix(1.0023365,0,0,1.0023365,139.73957,2.6903395)"
       style="fill:#000000;fill-opacity:1">
      <path
         style="opacity:1;fill:#000000;fill-opacity:1;stroke-width:0.315772;stroke-linecap:square;paint-order:stroke markers fill"
         d="m -128.98149,111.70474 c 0.66845,-1.51966 1.61421,-4.0419 2.10169,-5.60497 l 0.88632,-2.84196 V 64.891374 26.524942 l -0.88632,-2.841958 c -0.48748,-1.563077 -1.43324,-4.085315 -2.10169,-5.604973 l -1.21537,-2.763015 h 58.358472 58.358474 l -1.215367,2.763015 c -0.668451,1.519658 -1.614212,4.041896 -2.101694,5.604973 l -0.886325,2.841958 v 38.366432 38.366436 l 0.886325,2.84196 c 0.487482,1.56307 1.433243,4.08531 2.101694,5.60497 l 1.215367,2.76301 h -58.358474 -58.358472 z m 57.795409,-9.87902 c 0.539115,-0.28853 0.611193,-0.68686 0.614262,-3.394561 0.0019,-1.687224 0.08655,-3.56973 0.188092,-4.183349 l 0.184613,-1.115668 2.417038,2.408565 c 1.880949,1.874356 3.012352,2.695462 5.101108,3.702066 3.176302,1.530717 3.801441,1.723807 4.388223,1.355417 0.374666,-0.23521 0.361003,-0.59562 -0.09076,-2.394081 -0.292499,-1.164452 -0.952794,-3.045627 -1.467321,-4.180393 -0.514527,-1.134763 -0.935503,-2.131295 -0.935503,-2.214515 0,-0.08322 1.030211,-0.05785 2.289355,0.05637 4.601403,0.417419 10.698485,-0.683692 16.182538,-2.922506 2.502218,-1.021509 2.854555,-1.262269 2.940968,-2.009666 0.118946,-1.02878 -0.355864,-1.309979 -4.838734,-2.865676 -3.067114,-1.064382 -6.755337,-1.866601 -10.839199,-2.357615 l -2.001512,-0.240649 2.1594,-1.572842 c 2.787782,-2.030542 7.862284,-6.933948 10.300163,-9.952876 3.915195,-4.848349 9.732562,-14.654474 9.202443,-15.512222 -0.309581,-0.500914 -1.382926,-0.290933 -4.329236,0.846932 -9.23086,3.564961 -18.860805,9.999022 -24.024503,16.051503 -0.845534,0.991073 -1.599144,1.740141 -1.674688,1.664594 -0.07554,-0.07554 0.11761,-1.396793 0.429231,-2.936115 0.803587,-3.969504 0.798766,-15.854233 -0.0084,-20.79783 -1.388743,-8.505166 -5.339964,-21.090567 -6.767751,-21.556583 -1.195128,-0.39008 -5.102455,11.554503 -6.741731,20.609264 -0.94375,5.212953 -1.044417,17.46804 -0.178618,21.745149 0.3116,1.539322 0.514366,2.850938 0.450596,2.91471 -0.06377,0.06377 -1.019244,-0.892958 -2.12327,-2.126064 -4.965005,-5.545495 -13.080072,-11.129992 -21.188583,-14.581225 -4.02433,-1.712872 -5.7636,-2.258639 -6.40885,-2.011031 -0.43363,0.166399 -0.43385,0.330919 -0.002,1.597961 0.71701,2.10429 4.74368,8.839081 7.40806,12.390297 2.918191,3.889523 8.213951,9.200817 11.456009,11.489627 l 2.460083,1.736751 -1.996086,0.245081 c -8.042767,0.987502 -16.047996,3.543041 -16.047996,5.123064 0,0.662664 1.55378,1.551371 4.736596,2.709171 4.582374,1.666912 7.879416,2.266969 12.671375,2.306178 l 4.303387,0.03521 -0.789414,1.737659 c -1.149218,2.529662 -2.017241,5.396642 -1.910553,6.310341 0.07927,0.678907 0.230637,0.780497 1.033094,0.693307 1.259676,-0.13687 4.984181,-2.025709 7.034901,-3.567663 0.912809,-0.686351 2.227214,-1.965931 2.920902,-2.843512 l 1.261247,-1.595601 v 4.187486 c 0,3.45337 0.09162,4.28872 0.522603,4.76495 0.601532,0.66469 0.863123,0.70305 1.70857,0.25059 z"
         id="path1714" />
      <path
         style="opacity:1;fill:#000000;fill-opacity:1;stroke-width:0.315772;stroke-linecap:square;paint-order:stroke markers fill"
         d="m -134.67724,2.0525251 v -4.7365965 h 62.838852 62.8388509 V 2.0525251 6.7891218 H -71.838388 -134.67724 Z"
         id="path1753" />
      <path
         style="opacity:1;fill:#000000;fill-opacity:1;stroke-width:0.315772;stroke-linecap:square;paint-order:stroke markers fill"
         d="m -134.67724,127.73022 v -4.73659 h 62.838852 62.8388509 v 4.73659 4.7366 H -71.838388 -134.67724 Z"
         id="path1792" />
    </g>
  </g>
</svg>
