<?xml version="1.0" encoding="UTF-8" standalone="no"?>
<!-- Created with Inkscape (http://www.inkscape.org/) -->

<svg
   width="512"
   height="512"
   viewBox="0 0 135.46666 135.46667"
   version="1.1"
   id="svg5"
   inkscape:version="1.1 (c68e22c387, 2021-05-23)"
   sodipodi:docname="cocaine_pouch.svg"
   xmlns:inkscape="http://www.inkscape.org/namespaces/inkscape"
   xmlns:sodipodi="http://sodipodi.sourceforge.net/DTD/sodipodi-0.dtd"
   xmlns="http://www.w3.org/2000/svg"
   xmlns:svg="http://www.w3.org/2000/svg">
  <sodipodi:namedview
     id="namedview7"
     pagecolor="#505050"
     bordercolor="#ffffff"
     borderopacity="1"
     inkscape:pageshadow="0"
     inkscape:pageopacity="0"
     inkscape:pagecheckerboard="1"
     inkscape:document-units="px"
     showgrid="false"
     units="px"
     inkscape:zoom="0.83789063"
     inkscape:cx="91.897436"
     inkscape:cy="63.850816"
     inkscape:window-width="1920"
     inkscape:window-height="1017"
     inkscape:window-x="-8"
     inkscape:window-y="-8"
     inkscape:window-maximized="1"
     inkscape:current-layer="layer1" />
  <defs
     id="defs2" />
  <g
     inkscape:label="Calque 1"
     inkscape:groupmode="layer"
     id="layer1">
    <g
       id="g3486"
       transform="matrix(1.0023365,0,0,1.0023365,-0.15825944,-0.15825846)"
       style="fill:#000000;fill-opacity:1">
      <path
         style="opacity:1;fill:#000000;fill-opacity:1;stroke-width:1.19347;stroke-linecap:square;paint-order:stroke markers fill"
         d="m 40.026048,432.9324 c 2.526432,-5.74359 6.100965,-15.27646 7.943406,-21.18415 l 3.349893,-10.74126 V 256 110.99301 L 47.969454,100.25175 C 46.127013,94.344056 42.55248,84.811189 40.026048,79.067599 L 35.432534,68.624709 H 256 476.56746 l -4.59351,10.44289 c -2.52643,5.74359 -6.10096,15.276457 -7.94341,21.184151 l -3.34989,10.74126 V 256 401.00699 l 3.34989,10.74126 c 1.84245,5.90769 5.41698,15.44056 7.94341,21.18415 l 4.59351,10.44289 H 256 35.432534 Z M 396.82984,301.35198 v -8.35431 h -8.95105 c -6.35897,0 -8.95443,-0.43201 -8.96271,-1.49184 -0.0246,-3.14506 -5.91715,-13.97376 -10.15887,-18.66884 -2.4393,-2.70001 -6.44702,-6.03988 -8.90603,-7.42192 -3.84112,-2.15884 -4.67005,-3.40254 -5.88442,-8.82888 -2.0743,-9.26902 -9.32334,-20.50935 -17.53063,-27.183 -7.39975,-6.01699 -15.92395,-9.37744 -27.92331,-11.00805 -4.95568,-0.67343 -8.31875,-2.14331 -13.72494,-5.99872 -10.66423,-7.60514 -20.28089,-10.47745 -32.82051,-9.80285 -6.46715,0.34791 -12.63071,1.5046 -17.00301,3.19088 -8.50935,3.28183 -18.70096,12.37916 -23.96978,21.3961 -3.37912,5.78296 -4.53521,6.80961 -8.6165,7.65183 -10.88247,2.24571 -13.71211,3.57646 -20.51828,9.64947 -5.76364,5.14281 -8.21883,6.5227 -12.69788,7.13662 -8.35562,1.14527 -11.45352,3.2723 -22.19571,15.23968 -8.77212,9.77262 -15.49513,20.4441 -15.52798,24.64768 -0.009,1.10235 -3.43916,1.49184 -13.13986,1.49184 h -13.12821 v 8.35431 8.35431 H 256 396.82984 Z"
         id="path3126"
         transform="scale(0.26458333)" />
      <path
         style="opacity:1;fill:#000000;fill-opacity:1;stroke-width:1.19347;stroke-linecap:square;paint-order:stroke markers fill"
         d="M 18.498834,18.498834 V 0.5967366 H 256 493.50117 V 18.498834 36.400932 H 256 18.498834 Z"
         id="path3165"
         transform="scale(0.26458333)" />
      <path
         style="opacity:1;fill:#000000;fill-opacity:1;stroke-width:1.19347;stroke-linecap:square;paint-order:stroke markers fill"
         d="m 18.498834,493.50117 v -17.9021 H 256 493.50117 v 17.9021 17.90209 H 256 18.498834 Z"
         id="path3204"
         transform="scale(0.26458333)" />
      <path
         style="opacity:1;fill:#000000;fill-opacity:1;stroke-width:0.298368;stroke-linecap:square;paint-order:stroke markers fill"
         d="m 264.20513,251.67366 v -8.35431 h 8.05594 8.05595 v 8.35431 8.35431 h -8.05595 -8.05594 z"
         id="path3243"
         transform="scale(0.26458333)" />
      <path
         style="opacity:1;fill:#000000;fill-opacity:1;stroke-width:0.298368;stroke-linecap:square;paint-order:stroke markers fill"
         d="m 297.02564,268.38228 v -8.05594 h 8.05595 8.05594 v 8.05594 8.05595 h -8.05594 -8.05595 z"
         id="path3282"
         transform="scale(0.26458333)" />
    </g>
  </g>
</svg>
