<?xml version="1.0" encoding="UTF-8" standalone="no"?>
<!-- Created with Inkscape (http://www.inkscape.org/) -->

<svg
   width="512"
   height="512"
   viewBox="0 0 135.46666 135.46667"
   version="1.1"
   id="svg5"
   inkscape:version="1.1 (c68e22c387, 2021-05-23)"
   sodipodi:docname="cocaine.svg"
   xmlns:inkscape="http://www.inkscape.org/namespaces/inkscape"
   xmlns:sodipodi="http://sodipodi.sourceforge.net/DTD/sodipodi-0.dtd"
   xmlns="http://www.w3.org/2000/svg"
   xmlns:svg="http://www.w3.org/2000/svg">
  <sodipodi:namedview
     id="namedview7"
     pagecolor="#505050"
     bordercolor="#ffffff"
     borderopacity="1"
     inkscape:pageshadow="0"
     inkscape:pageopacity="0"
     inkscape:pagecheckerboard="1"
     inkscape:document-units="px"
     showgrid="false"
     units="px"
     inkscape:zoom="0.83789063"
     inkscape:cx="91.897436"
     inkscape:cy="63.850816"
     inkscape:window-width="1920"
     inkscape:window-height="1017"
     inkscape:window-x="-8"
     inkscape:window-y="-8"
     inkscape:window-maximized="1"
     inkscape:current-layer="layer1" />
  <defs
     id="defs2" />
  <g
     inkscape:label="Calque 1"
     inkscape:groupmode="layer"
     id="layer1">
    <path
       style="fill:#000000;fill-opacity:1;stroke-width:0.264583"
       d="M 2.9999999e-6,89.645417 V 85.67657 H 6.174208 12.348584 l 0.446806,-1.606997 c 0.927572,-3.336361 3.061758,-6.701906 5.936637,-9.362769 0.771072,-0.713728 2.050218,-2.158762 2.842452,-3.211433 2.779476,-3.693055 5.325992,-5.257726 9.209511,-5.658451 1.241087,-0.128 2.518868,-0.373077 2.83938,-0.544597 0.320512,-0.17152 1.548117,-1.297067 2.728105,-2.500949 3.032063,-3.093844 6.595923,-4.796414 10.287783,-4.914686 2.378751,-0.0768 2.458281,-0.128 3.460948,-2.238804 5.204989,-10.96055 17.264461,-16.263844 28.80306,-12.666533 2.84655,0.887466 5.70982,2.430633 7.97661,4.29875 0.99909,0.823466 2.03759,1.658367 2.30793,1.855487 0.27238,0.198315 2.00124,0.516096 3.87618,0.712192 6.57288,0.687786 11.259894,2.807807 15.433204,6.981117 3.56369,3.563689 6.13649,8.593916 6.74611,13.189968 0.16725,1.263103 0.22852,1.342975 1.46278,1.921193 4.26103,1.995776 8.58151,7.275347 9.93371,12.139515 l 0.4468,1.606997 h 4.19004 4.19003 v 3.968847 3.96869 H 67.733307 2.9999999e-6 Z M 95.514416,73.770356 v -3.968681 h -3.96868 -3.96885 v 3.968681 3.968852 h 3.96885 3.96868 z m -15.8749,-8.069799 V 61.59961 h -3.96885 -3.968678 v 4.100947 4.101118 h 3.968678 3.96885 z"
       id="path3662"
       sodipodi:nodetypes="ccccsssssssssssssssscccccccccccccccccccccccccc" />
  </g>
</svg>
