<?xml version="1.0" encoding="UTF-8" standalone="no"?>
<!-- Created with Inkscape (http://www.inkscape.org/) -->

<svg
   width="512"
   height="512"
   viewBox="0 0 135.46666 135.46667"
   version="1.1"
   id="svg5"
   inkscape:version="1.1 (c68e22c387, 2021-05-23)"
   sodipodi:docname="methamphetamine.svg"
   xmlns:inkscape="http://www.inkscape.org/namespaces/inkscape"
   xmlns:sodipodi="http://sodipodi.sourceforge.net/DTD/sodipodi-0.dtd"
   xmlns="http://www.w3.org/2000/svg"
   xmlns:svg="http://www.w3.org/2000/svg">
  <sodipodi:namedview
     id="namedview7"
     pagecolor="#505050"
     bordercolor="#ffffff"
     borderopacity="1"
     inkscape:pageshadow="0"
     inkscape:pageopacity="0"
     inkscape:pagecheckerboard="1"
     inkscape:document-units="px"
     showgrid="false"
     units="px"
     inkscape:zoom="0.83789063"
     inkscape:cx="91.897436"
     inkscape:cy="63.850816"
     inkscape:window-width="1920"
     inkscape:window-height="1017"
     inkscape:window-x="-8"
     inkscape:window-y="-8"
     inkscape:window-maximized="1"
     inkscape:current-layer="layer1" />
  <defs
     id="defs2" />
  <g
     inkscape:label="Calque 1"
     inkscape:groupmode="layer"
     id="layer1">
    <path
       style="fill:#000000;fill-opacity:1;stroke-width:0.264583"
       d="m 16.139593,124.16249 v -3.96134 l 3.751373,-0.0734 3.751493,-0.0734 -10.090378,-7.54056 C 8.0024277,108.36642 3.4567887,104.91263 3.4506967,104.83857 3.4276567,104.56311 26.249871,97.119137 26.44769,97.337587 c 0.113152,0.12459 5.239007,6.954333 11.390585,15.176203 6.151595,8.22186 11.301497,15.09786 11.444191,15.27979 0.206899,0.26368 -3.118865,0.33058 -16.441772,0.33058 H 16.139593 Z M 46.091579,110.19854 C 38.698077,100.33947 32.55679,92.121187 32.444184,91.935497 c -0.184781,-0.30481 7.043585,-22.650199 7.48643,-23.142572 0.09694,-0.10752 5.499751,9.803265 12.005463,22.025732 l 11.828499,22.222513 v 7.54142 7.54142 h -2.11509 -2.115174 z m 25.610482,10.38592 v -7.53971 L 83.528973,90.818827 c 6.5047,-12.224344 11.90721,-22.136836 12.00543,-22.027609 0.44378,0.493056 7.673357,22.838619 7.488047,23.144279 -0.11264,0.18569 -6.253857,8.403973 -13.647357,18.263043 l -13.44273,17.92547 h -2.115076 -2.115226 z m 14.486122,7.20879 c 0.14489,-0.18176 5.23231,-6.99818 11.30528,-15.14735 6.073017,-8.14916 11.195687,-14.978903 11.383807,-15.177213 0.28669,-0.30226 2.18517,0.25326 11.74592,3.437223 6.2721,2.08879 11.39888,3.85844 11.39278,3.9325 -0.0102,0.0734 -4.55171,3.52786 -10.10138,7.67523 l -10.09042,7.54056 3.75148,0.0734 3.75142,0.0734 v 3.96151 3.96152 h -16.7011 c -13.325067,0 -16.647897,-0.0666 -16.437787,-0.33076 z M 3.7499999e-6,81.056521 V 64.62405 H 16.432508 c 13.034464,0 16.407281,0.06827 16.310786,0.330752 -0.06707,0.18193 -1.879842,5.628928 -4.028689,12.104705 -2.149001,6.475606 -4.041695,11.90844 -4.206251,12.07296 -0.164352,0.16384 -5.597253,2.05722 -12.072962,4.20608 -6.4755883,2.14904 -11.92270525,3.96186 -12.10463625,4.02876 C 0.06840675,97.464607 3.7499999e-6,94.091017 3.7499999e-6,81.056521 Z M 123.10837,93.376607 c -6.57868,-2.20774 -12.07049,-4.13303 -12.20388,-4.27861 -0.13347,-0.14507 -2.00129,-5.562884 -4.15101,-12.03849 -2.14973,-6.475777 -3.96322,-11.922775 -4.03009,-12.104705 -0.0969,-0.262315 3.27631,-0.330752 16.31077,-0.330752 h 16.4325 v 16.40414 c 0,9.022297 -0.0889,16.394757 -0.1985,16.383317 -0.10905,-0.0171 -5.58099,-1.82716 -12.15979,-4.0349 z M 53.763286,77.313459 43.89626,58.7823 42.179404,49.362181 C 41.235105,44.181082 40.496494,39.840345 40.538,39.7161 c 0.04198,-0.124587 5.284506,3.245739 11.651073,7.488854 l 11.575503,7.714817 v 20.462424 c 0,11.254442 -0.02987,20.462762 -0.0669,20.462762 -0.03703,0 -4.507341,-8.33911 -9.934234,-18.531498 z M 71.702061,75.426397 V 54.919771 l 11.575532,-7.714817 c 6.36657,-4.243115 11.6095,-7.613099 11.65108,-7.488854 0.042,0.124587 -0.69719,4.465665 -1.64166,9.647788 l -1.71723,9.421825 -9.82919,18.463405 c -5.40602,10.155009 -9.876245,18.513069 -9.933828,18.573659 -0.05803,0.0597 -0.104789,-9.1177 -0.104789,-20.39638 z M 55.482855,39.815257 43.364684,31.71115 55.548971,19.526914 67.733378,7.3425075 79.917663,19.526914 92.101983,31.71115 79.918163,39.833177 c -6.701179,4.467201 -12.213901,8.114007 -12.250492,8.104279 -0.03703,-0.01707 -5.51977,-3.664897 -12.184816,-8.122199 z"
       id="path3622" />
  </g>
</svg>
