<?xml version="1.0" encoding="UTF-8" standalone="no"?>
<!-- Created with Inkscape (http://www.inkscape.org/) -->

<svg
   width="512"
   height="512"
   viewBox="0 0 135.46666 135.46667"
   version="1.1"
   id="svg5"
   inkscape:version="1.1 (c68e22c387, 2021-05-23)"
   sodipodi:docname="meth_pouch.svg"
   xmlns:inkscape="http://www.inkscape.org/namespaces/inkscape"
   xmlns:sodipodi="http://sodipodi.sourceforge.net/DTD/sodipodi-0.dtd"
   xmlns="http://www.w3.org/2000/svg"
   xmlns:svg="http://www.w3.org/2000/svg">
  <sodipodi:namedview
     id="namedview7"
     pagecolor="#505050"
     bordercolor="#ffffff"
     borderopacity="1"
     inkscape:pageshadow="0"
     inkscape:pageopacity="0"
     inkscape:pagecheckerboard="1"
     inkscape:document-units="px"
     showgrid="false"
     units="px"
     inkscape:zoom="0.83789063"
     inkscape:cx="91.897436"
     inkscape:cy="63.850816"
     inkscape:window-width="1920"
     inkscape:window-height="1017"
     inkscape:window-x="-8"
     inkscape:window-y="-8"
     inkscape:window-maximized="1"
     inkscape:current-layer="layer1" />
  <defs
     id="defs2" />
  <g
     inkscape:label="Calque 1"
     inkscape:groupmode="layer"
     id="layer1">
    <g
       id="g2934"
       transform="matrix(1.0044663,0,0,1.0044663,-0.44856841,-0.22428583)"
       style="fill:#000000;fill-opacity:1">
      <path
         style="opacity:1;fill:#000000;fill-opacity:1;stroke-width:1.68783;stroke-linecap:square;paint-order:stroke markers fill"
         d="m 36.288258,442.14316 c 0,-0.50113 1.506444,-3.86402 3.347654,-7.47308 1.841209,-3.60908 5.259056,-13.15781 7.595216,-21.2194 l 4.247564,-14.65745 V 255.90485 c 0,-137.42078 -0.128408,-143.35174 -3.355792,-154.99814 C 46.277215,94.246331 42.859367,84.483187 40.527683,79.210837 38.196,73.938486 36.288258,69.339491 36.288258,68.990848 c 0,-0.348643 99.033912,-0.633896 220.075372,-0.633896 h 220.07536 l -5.78855,13.388826 C 459.58132,107.34851 459.77181,104.04199 460.3036,261.34492 l 0.48018,142.04549 3.98618,11.81478 c 2.19238,6.49813 5.81126,15.42251 8.04195,19.83196 l 4.05579,8.01717 H 256.57799 c -121.15936,0 -220.289732,-0.41003 -220.289732,-0.91116 z M 214.88832,380.85543 c 3.66946,-1.03293 2.44783,-3.04774 -19.85371,-32.74436 -13.07006,-17.40404 -24.32272,-31.6437 -25.00589,-31.6437 -3.96619,0 -47.53209,15.7219 -46.80881,16.8922 0.48084,0.77802 9.35353,7.73899 19.71708,15.46879 l 18.84282,14.05422 -6.20361,0.52386 -6.2036,0.52383 v 9.18116 9.18115 l 30.80282,-0.16827 c 16.94156,-0.0925 32.56235,-0.66354 34.7129,-1.26891 z m 34.05399,-15.01915 -0.0118,-16.4563 -24.65878,-45.97091 c -13.56253,-25.28403 -25.31264,-45.56695 -26.11155,-45.07319 -1.78721,1.10456 -15.03105,42.13779 -15.03105,46.57052 0,1.75968 12.54523,19.89144 27.87828,40.2928 25.41125,33.81087 28.32379,37.09338 32.9126,37.09338 h 5.03433 l -0.0118,-16.4563 z m 52.85497,-21.70711 28.36945,-38.01665 -7.81805,-24.59675 c -6.59843,-20.7597 -8.17339,-24.23063 -10.09598,-22.24975 -1.25286,1.29085 -12.5847,21.71481 -25.18184,45.38657 l -22.90392,43.03956 -0.0118,17.30022 -0.0104,17.30021 4.64152,-0.0734 c 4.05912,-0.0641 8.20121,-4.84359 33.01099,-38.09003 z m 61.92922,28.88037 v -9.28304 h -6.921 -6.921 l 19.15774,-14.5997 c 10.53676,-8.02983 19.5155,-14.90683 19.95277,-15.28221 1.59469,-1.36898 -4.60424,-4.01538 -25.25439,-10.78133 -12.81014,-4.1972 -21.90512,-6.35004 -23.17693,-5.48609 -1.15129,0.78207 -12.31882,15.09333 -24.81673,31.80281 -20.90753,27.95294 -22.42743,30.46858 -19.01871,31.47849 2.03762,0.6037 17.94581,1.17334 35.35151,1.26587 l 31.64674,0.16824 z m -219.94431,-63.99409 23.94654,-7.94846 7.94846,-23.94656 c 4.37165,-13.17059 8.29776,-24.89594 8.72469,-26.05632 0.6051,-1.64468 -6.89121,-2.10978 -34.00479,-2.10978 h -34.78101 v 34.78101 c 0,27.11358 0.4651,34.60989 2.10978,34.00479 1.16038,-0.42692 12.88573,-4.35303 26.05633,-8.72468 z m 252.6175,2.8104 c 0.57539,-3.48114 1.05453,-19.05134 1.06474,-34.60043 l 0.0186,-28.27109 h -34.60044 c -26.53763,0 -34.60043,0.49118 -34.60043,2.10779 0,1.15927 3.48366,12.5606 7.74147,25.33628 5.64426,16.93575 8.70434,23.74379 11.29567,25.13065 3.18142,1.70263 44.41305,16.17815 46.9892,16.49686 0.57475,0.0711 1.5158,-2.71892 2.0912,-6.20006 z M 248.95433,271.953 v -42.82654 l -24.70407,-16.29808 c -13.58723,-8.96394 -24.91685,-16.0853 -25.17691,-15.82523 -0.26006,0.26006 1.2071,9.62633 3.26036,20.81393 3.66621,19.97606 4.07689,20.99072 22.88491,56.54199 18.22626,34.45165 21.63717,40.42047 23.09846,40.42047 0.35049,0 0.63725,-19.27195 0.63725,-42.82654 z m 39.19822,-0.21302 c 17.45307,-32.89363 18.00349,-34.2679 21.53256,-53.76225 1.99192,-11.00315 3.35982,-20.26757 3.03979,-20.5876 -0.32003,-0.32003 -11.37837,6.40398 -24.57408,14.94225 l -23.99223,15.52413 -6.1e-4,43.88347 c -5.9e-4,43.02731 0.0587,43.78469 3.04155,38.82 1.67317,-2.78491 11.10203,-20.25391 20.95302,-38.82 z m -6.27603,-72.84118 c 13.45515,-8.96446 24.46389,-16.75905 24.46389,-17.32132 0,-0.56227 -11.39282,-12.39614 -25.31739,-26.29749 l -25.31738,-25.27518 -25.32268,25.28045 c -13.92746,13.90425 -25.13041,25.85454 -24.89543,26.55621 0.64715,1.93244 47.37353,33.12567 49.80574,33.24894 1.16566,0.0591 13.12813,-7.22715 26.58325,-16.19161 z"
         id="path2734"
         transform="scale(0.26458333)" />
      <path
         style="opacity:1;fill:#000000;fill-opacity:1;stroke-width:1.68783;stroke-linecap:square;paint-order:stroke markers fill"
         d="M 19.409999,18.566086 V 0.84391299 H 256.54955 493.6891 V 18.566086 36.288258 H 256.54955 19.409999 Z"
         id="path2773"
         transform="scale(0.26458333)" />
      <path
         style="opacity:1;fill:#000000;fill-opacity:1;stroke-width:1.68783;stroke-linecap:square;paint-order:stroke markers fill"
         d="M 19.409999,492.84518 V 475.12301 H 256.54955 493.6891 v 17.72217 17.72218 H 256.54955 19.409999 Z"
         id="path2812"
         transform="scale(0.26458333)" />
    </g>
  </g>
</svg>
