<?xml version="1.0" encoding="UTF-8"?>
<svg width="512" height="512" version="1.1" viewBox="0 0 135.47 135.47" xmlns="http://www.w3.org/2000/svg">
 <path d="m128.69 27.093h-121.92c-3.7402 0-6.7732 3.0333-6.7732 6.7734v67.733c0 3.7402 3.0331 6.7732 6.7732 6.7732h121.92c3.74 0 6.7732-3.0331 6.7732-6.7732v-67.733c0-3.7402-3.0332-6.7734-6.7732-6.7734zm-118.53 71.12v-13.547c7.4824 0 13.547 6.0641 13.547 13.547zm0-47.413v-13.547h13.547c0 7.4825-6.0643 13.547-13.547 13.547zm57.573 37.253c-9.3536 0-16.933-9.0994-16.933-20.32 0-11.223 7.5819-20.32 16.933-20.32 9.3513 0 16.933 9.0976 16.933 20.32 0 11.225-7.5841 20.32-16.933 20.32zm57.573 10.16h-13.547c0-7.4825 6.0643-13.547 13.547-13.547zm0-47.413c-7.4825 0-13.547-6.0641-13.547-13.547h13.547z" stroke-width=".21167" data-darkreader-inline-fill=""/>
</svg>
