<?xml version="1.0" encoding="UTF-8" standalone="no"?>
<!-- Created with Inkscape (http://www.inkscape.org/) -->

<svg
   width="512"
   height="512"
   viewBox="0 0 135.46666 135.46667"
   version="1.1"
   id="svg5"
   inkscape:version="1.1 (c68e22c387, 2021-05-23)"
   sodipodi:docname="9mm.svg"
   xmlns:inkscape="http://www.inkscape.org/namespaces/inkscape"
   xmlns:sodipodi="http://sodipodi.sourceforge.net/DTD/sodipodi-0.dtd"
   xmlns="http://www.w3.org/2000/svg"
   xmlns:svg="http://www.w3.org/2000/svg">
  <sodipodi:namedview
     id="namedview7"
     pagecolor="#505050"
     bordercolor="#ffffff"
     borderopacity="1"
     inkscape:pageshadow="0"
     inkscape:pageopacity="0"
     inkscape:pagecheckerboard="1"
     inkscape:document-units="px"
     showgrid="false"
     units="px"
     inkscape:zoom="0.52420491"
     inkscape:cx="-289.96295"
     inkscape:cy="445.4365"
     inkscape:window-width="1920"
     inkscape:window-height="1017"
     inkscape:window-x="-8"
     inkscape:window-y="-8"
     inkscape:window-maximized="1"
     inkscape:current-layer="layer1" />
  <defs
     id="defs2" />
  <g
     inkscape:label="Calque 1"
     inkscape:groupmode="layer"
     id="layer1">
    <path
       style="fill:#000000;stroke-width:0.264592"
       d="m 2.2243504,110.84376 c -0.6959,-0.3444 -1.29649995,-0.9217 -1.69269995,-1.6262 -0.591,-1.0514 -0.6076,-1.2391 -0.4396,-4.9629 0.4664,-10.332901 2.57379995,-18.409601 7.25429995,-27.802601 2.4684,-4.9532 2.5712,-5.2292 2.5713,-6.9001 -2e-4,-2.3602 -0.9738,-3.9966 -3.0112,-5.0609 l -1.4152,-0.7394 H 26.68885 47.88655 v 3.9688 l -10e-5,3.969 h 8.038 8.0383 l 0.1254,-3.2413 c 0.069,-1.7827 0.259,-3.5688 0.4224,-3.9689 l 0.2967,-0.7276 h 3.5785 3.5787 v 6.2666 c -1e-4,5.7869 -0.042,6.3529 -0.5453,7.3927 -0.3957,0.8175 -0.8536,1.2754 -1.671,1.6711 -1.0842,0.5249 -1.5547,0.5452 -12.6623,0.5451 l -11.5363,10e-5 -1.5008,1.6536 c -2.8023,3.0878 -4.6292,7.9449 -4.6293,12.3072 1e-4,3.9608 0.8741,6.883501 3.2076,10.725401 1.4352,2.3633 1.5591,3.1402 0.7753,4.8663 -0.3565,0.7854 -0.8151,1.2681 -1.5714,1.6534 -1.0482,0.5348 -1.4116,0.5449 -19.7982,0.5445 -18.2523996,-2e-4 -18.7578996,-0.014 -19.8088996,-0.5341 z M 82.13105,71.154959 c -0.6712,-0.3324 -1.2957,-0.9203 -1.6535,-1.5573 -0.5464,-0.9719 -0.5752,-1.3437 -0.5751,-7.4038 v -6.3803 H 41.63885 3.3749504 l -1.0555,-0.5933 c -1.1751,-0.6603 -2.05919995,-2.1059 -2.05919995,-3.3666 0,-0.5136 1.62929995,-4.0634 4.49549995,-9.7936 4.2945,-8.5864 4.5424,-9.0118 5.5457996,-9.5238 1.0326,-0.5268 1.4693,-0.5358 25.8305,-0.5358 h 24.7799 l 1.0282,0.5778 c 1.5279,0.8587 2.0869,2.2141 2.0868,5.062 v 2.2979 h 7.9377 7.9378 v -2.4115 c 0,-2.8496 0.5193,-4.0676 2.1178,-4.9659 0.9887,-0.5557 1.148,-0.5604 19.284,-0.5603 h 18.2869 l 1e-4,-2.4116 c 0,-2.8496 0.5193,-4.0677 2.1178,-4.966 1.2436,-0.6988 2.3703,-0.711 3.6857,-0.04 1.5304,0.7806 2.1343,2.229 2.1343,5.1196 v 2.2979 h 2.4112 c 2.9559,0 4.1739,0.5481 4.9972,2.2489 0.5118,1.0574 0.5292,1.6337 0.5292,17.5954 0,16.1219 -0.013,16.528 -0.5451,17.6283 -0.3957,0.8174 -0.8535,1.2753 -1.6709,1.671 -1.0399,0.5033 -1.606,0.5451 -7.3929,0.5452 h -6.2666 l 1e-4,-6.3765 c 0,-7.0679 -0.1127,-7.6542 -1.6864,-8.7766 -1.1547,-0.8237 -3.4106,-0.8237 -4.5651,0 -1.5737,1.1224 -1.6862,1.7088 -1.6862,8.7765 v 6.3766 h -3.9691 -3.9688 v -6.3766 c 0,-7.0679 -0.1126,-7.6541 -1.6864,-8.7765 -1.1545,-0.8237 -3.4105,-0.8237 -4.565,0 -1.5737,1.1223 -1.6862,1.7087 -1.6864,8.7766 v 6.3765 l -6.2841,-2e-4 c -5.7695,-2e-4 -6.3724,-0.044 -7.3626,-0.5343 z"
       id="path24673" />
  </g>
</svg>
