<?xml version="1.0" encoding="UTF-8" standalone="no"?>
<!-- Created with Inkscape (http://www.inkscape.org/) -->

<svg
   width="512"
   height="512"
   viewBox="0 0 135.46666 135.46667"
   version="1.1"
   id="svg5"
   inkscape:version="1.1 (c68e22c387, 2021-05-23)"
   sodipodi:docname="ak47.svg"
   xmlns:inkscape="http://www.inkscape.org/namespaces/inkscape"
   xmlns:sodipodi="http://sodipodi.sourceforge.net/DTD/sodipodi-0.dtd"
   xmlns="http://www.w3.org/2000/svg"
   xmlns:svg="http://www.w3.org/2000/svg">
  <sodipodi:namedview
     id="namedview7"
     pagecolor="#505050"
     bordercolor="#ffffff"
     borderopacity="1"
     inkscape:pageshadow="0"
     inkscape:pageopacity="0"
     inkscape:pagecheckerboard="1"
     inkscape:document-units="px"
     showgrid="false"
     units="px"
     inkscape:zoom="0.52420491"
     inkscape:cx="-289.96295"
     inkscape:cy="445.4365"
     inkscape:window-width="1920"
     inkscape:window-height="1017"
     inkscape:window-x="-8"
     inkscape:window-y="-8"
     inkscape:window-maximized="1"
     inkscape:current-layer="layer1" />
  <defs
     id="defs2" />
  <g
     inkscape:label="Calque 1"
     inkscape:groupmode="layer"
     id="layer1">
    <path
       style="fill:#000000;stroke-width:0.24097"
       d="M 0.27266471,85.270217 C -0.21213609,84.145715 -0.05163582,82.877113 0.76366556,81.387611 1.1975663,80.594909 3.0876694,77.302404 4.9639724,74.071099 L 8.375178,68.195789 7.6471768,67.467888 C 7.2470762,67.067787 6.7846754,66.443486 6.6196751,66.080786 6.1946744,65.145484 6.3181746,58.181173 6.8022754,55.775869 c 0.8023013,-3.983907 2.3000038,-6.731711 5.3105086,-9.742016 2.983305,-2.983405 5.786309,-4.512208 9.702616,-5.291809 1.237202,-0.2461 9.842516,-0.364501 26.051642,-0.358201 22.906838,0.01 24.23664,-0.023 24.805841,-0.592 0.3309,-0.330801 0.916401,-0.665602 1.301302,-0.744202 1.146702,-0.2339 28.389445,-0.2295 29.154645,0.01 0.3876,0.1187 1.085,0.595901 1.5496,1.060702 0.7255,0.725501 0.8702,1.058902 1.0218,2.354004 l 0.1767,1.508802 4.06201,-0.01 c 4.62371,-0.01 6.06711,0.334901 7.87741,1.882203 1.38651,1.185102 1.97881,2.384204 2.93041,5.93311 l 0.646,2.409604 3.444,10e-5 h 3.44411 l 0.028,-3.492906 c 0.028,-3.576105 0.2037,-4.383907 1.1564,-5.336508 1.1959,-1.196002 3.75091,-1.228702 4.93041,-0.063 0.9399,0.927101 1.0999,2.123203 1.0671,7.924412 -0.027,4.877708 -0.1205,6.01071 -0.5449,6.627611 -1.1037,1.604903 -1.3364,1.629503 -15.67192,1.653103 l -13.44693,0.022 0.025,2.062203 c 0.045,3.631606 -0.5411,5.172509 -2.2696,5.96421 -0.8767,0.401601 -28.904744,0.440401 -29.918545,0.041 -0.432701,-0.1703 -0.963502,-0.486501 -1.179702,-0.702601 -0.264401,-0.2644 -1.278202,-0.3902 -3.100905,-0.3848 -1.489403,0 -2.705705,0.074 -2.702705,0.1549 0,0.081 0.492701,1.116202 1.088502,2.301204 2.196903,4.370307 5.443609,8.597214 9.415415,12.25842 2.464404,2.271603 2.949605,3.154805 2.584105,4.703207 -0.398001,1.685803 -1.153902,2.161804 -8.685115,5.469109 -3.827306,1.680803 -7.297112,3.108905 -7.710812,3.173505 -0.413701,0.065 -1.207102,-0.031 -1.763403,-0.2122 -0.919602,-0.2999 -1.343502,-0.662701 -4.670808,-3.997206 -2.757604,-2.770505 -4.002906,-4.160807 -5.057508,-5.67721 -3.620706,-5.205408 -6.27051,-10.924318 -7.664213,-16.541527 l -0.4004,-1.613902 -0.924902,-0.02 c -0.794801,-0.017 -0.930101,0.05 -0.962101,0.4781 -0.021,0.273801 -0.665702,2.451404 -1.433703,4.838908 -1.429702,4.444307 -1.822603,5.155309 -3.196005,5.78321 -0.362201,0.1655 -3.137905,0.3056 -6.16841,0.3112 l -5.509809,0.01 -3.651006,6.334611 c -2.008003,3.484005 -3.952807,6.61521 -4.321707,6.958611 -0.866302,0.805701 -2.299104,1.136802 -3.325306,0.767901 C 13.431586,93.681031 1.1202661,86.518919 0.74866546,86.110718 0.62796526,85.977218 0.41276494,85.601017 0.2716647,85.273617 Z M 31.645116,72.767196 l 1.646802,-0.013 0.631002,-2.132903 0.631301,-2.132904 -1.171202,0.018 -1.170902,0.018 -1.205702,2.028403 c -0.663101,1.115702 -1.161102,2.072903 -1.106802,2.127103 0.055,0.055 0.839701,0.093 1.745403,0.087 z M 32.963618,56.74637 c 1.291902,0.026 2.698704,-0.093 3.126505,-0.265 1.934503,-0.780001 1.786303,-3.674706 -0.2202,-4.296607 -1.003302,-0.311101 -4.525508,-0.254101 -5.270309,0.085 -1.424502,0.648701 -1.734503,2.678504 -0.584501,3.828306 0.508501,0.508601 0.957202,0.607301 2.948505,0.648401 z m 65.518307,-2.380304 v -8.350013 l -9.965916,1e-4 -9.966316,-2e-4 v 8.347813 8.347814 h 9.968816 9.968716 z"
       id="path23053" />
  </g>
</svg>
