<?xml version="1.0" encoding="UTF-8" standalone="no"?>
<!-- Created with Inkscape (http://www.inkscape.org/) -->

<svg
   width="512"
   height="512"
   viewBox="0 0 135.46666 135.46667"
   version="1.1"
   id="svg5"
   inkscape:version="1.1 (c68e22c387, 2021-05-23)"
   sodipodi:docname="binoculars.svg"
   xmlns:inkscape="http://www.inkscape.org/namespaces/inkscape"
   xmlns:sodipodi="http://sodipodi.sourceforge.net/DTD/sodipodi-0.dtd"
   xmlns="http://www.w3.org/2000/svg"
   xmlns:svg="http://www.w3.org/2000/svg">
  <sodipodi:namedview
     id="namedview7"
     pagecolor="#505050"
     bordercolor="#ffffff"
     borderopacity="1"
     inkscape:pageshadow="0"
     inkscape:pageopacity="0"
     inkscape:pagecheckerboard="1"
     inkscape:document-units="px"
     showgrid="false"
     units="px"
     inkscape:zoom="0.52420491"
     inkscape:cx="-289.96295"
     inkscape:cy="445.4365"
     inkscape:window-width="1920"
     inkscape:window-height="1017"
     inkscape:window-x="-8"
     inkscape:window-y="-8"
     inkscape:window-maximized="1"
     inkscape:current-layer="layer1" />
  <defs
     id="defs2" />
  <g
     inkscape:label="Calque 1"
     inkscape:groupmode="layer"
     id="layer1">
    <path
       style="fill:#000000;stroke-width:0.26506"
       d="M 2.0457846,121.36573 C 0.69505262,120.69993 6.2105246e-7,119.52812 6.2105246e-7,117.91632 6.2105246e-7,115.59233 1.4553216,114.16586 4.0678266,113.92904 l 1.630937,-0.14797 v -4.60169 -4.60179 H 26.771112 47.843461 v 4.63856 4.63855 l 1.259067,0.01 c 1.671811,0.01 3.368967,0.80695 4.035668,1.90052 1.1108,1.82198 0.467542,4.38871 -1.38269,5.51684 -0.845323,0.51543 -1.377581,0.52665 -24.851855,0.52164 -21.5556194,0 -24.0761584,-0.0481 -24.8578664,-0.43378 z m 81.6447364,-0.0882 c -1.85024,-1.12813 -2.4936,-3.69485 -1.38269,-5.51683 0.6667,-1.09357 2.36375,-1.89271 4.03566,-1.90053 l 1.25907,-0.01 v -4.63855 -4.63855 h 21.072349 21.07225 v 4.60178 4.60169 l 1.63093,0.14797 c 1.7215,0.15608 2.57113,0.6104 3.52145,1.88319 0.77449,1.03737 0.75215,3.18784 -0.0451,4.30505 -1.26918,1.77921 0.13344,1.68934 -26.35255,1.68824 -23.428799,-0.001 -23.966659,-0.012 -24.811789,-0.52765 z M 5.7707926,79.992921 c 0.07213,-14.270098 0.18313,-19.593285 0.426569,-20.475974 0.667001,-2.419056 1.957625,-4.595776 3.8651604,-6.51904 1.766481,-1.781007 2.218195,-2.057806 8.531965,-5.227514 l 6.666806,-3.346927 0.163695,-2.724306 c 0.09016,-1.498399 0.284813,-5.392011 0.432679,-8.652583 0.287919,-6.349234 0.45502,-7.102991 1.701264,-7.670814 0.382188,-0.174113 1.40503,-0.31667 2.272893,-0.31667 h 1.577841 v -2.120519 c 0,-1.184032 -0.112803,-2.120419 -0.25546,-2.120419 -0.140553,0 -0.558004,-0.445201 -0.92777,-0.989281 -1.272392,-1.872572 -0.702365,-4.450114 1.247045,-5.638655 0.829094,-0.50551 1.357846,-0.526748 13.136157,-0.52775 13.241947,-10e-4 12.983782,-0.02705 14.344332,1.429675 1.27149,1.36095 0.968845,4.600084 -0.51643,5.527654 -0.4443,0.2774 -0.52184,0.623623 -0.52184,2.329295 v 2.003508 l 0.930276,0.336406 c 1.252255,0.452816 1.622722,1.295734 1.850332,4.209881 l 0.191344,2.451816 h 6.83531 6.83531 l 0.19144,-2.451816 c 0.22751,-2.914147 0.59798,-3.757065 1.85024,-4.209881 l 0.93027,-0.336406 v -2.003508 c 0,-1.705672 -0.0771,-2.051895 -0.52174,-2.329295 -1.48527,-0.92757 -1.78792,-4.166704 -0.51653,-5.527654 1.36065,-1.456423 1.10249,-1.430677 14.34443,-1.429675 11.778209,10e-4 12.306969,0.02204 13.136059,0.52775 1.94951,1.188541 2.51954,3.766083 1.24705,5.638655 -0.36967,0.54408 -0.78712,0.989281 -0.92767,0.989281 -0.14266,0 -0.25556,0.936387 -0.25556,2.120419 v 2.120519 h 1.57794 c 0.86786,0 1.8906,0.142557 2.27289,0.31667 1.24614,0.567823 1.41335,1.32158 1.70126,7.670814 0.14787,3.260572 0.34252,7.154184 0.43258,8.652583 l 0.1638,2.724306 6.6668,3.346927 c 6.31377,3.169708 6.76549,3.446507 8.53197,5.227514 1.90753,1.923264 3.19806,4.099984 3.86516,6.51904 0.24334,0.882689 0.35424,6.205876 0.42657,20.475974 l 0.0972,19.283127 H 108.68736 87.602191 v -4.771093 -4.771092 h -6.63966 c -7.3325,0 -7.85023,-0.09717 -8.46695,-1.585755 -0.27078,-0.653878 -0.2776,-2.088662 -0.0341,-7.23543 0.1669,-3.530859 0.30215,-6.807359 0.30054,-7.281213 v -0.861451 h -5.036165 -5.036169 v 0.861451 c 0,0.473854 0.13354,3.750354 0.300441,7.281213 0.243338,5.146768 0.236526,6.581552 -0.03406,7.23543 -0.61661,1.488781 -1.134443,1.585755 -8.466847,1.585755 h -6.639657 v 4.771092 4.771093 H 26.7644 5.6792286 Z m 76.4686084,-22.132557 0.0711,-7.090369 H 67.72787 53.145108 v 6.97997 c 0,3.838913 0.08014,7.060415 0.179022,7.158892 0.09818,0.09818 6.628838,0.148067 14.512035,0.110399 l 14.333116,-0.06812 z M 61.410493,61.65099 c -3.322383,-0.826789 -3.985878,-5.378686 -1.045383,-7.171615 0.799941,-0.487678 1.344421,-0.526649 7.357851,-0.526649 6.01343,0 6.55791,0.03907 7.35785,0.526649 2.54298,1.550492 2.53266,4.84232 -0.021,6.736131 -0.70176,0.520437 -1.11711,0.557604 -6.75907,0.604288 -3.306154,0.02705 -6.406637,-0.04909 -6.890008,-0.168804 z M 74.179391,41.824185 c 0.0902,-0.546685 0.1656,-1.321981 0.1672,-1.722903 v -0.728913 h -6.626535 -6.626534 v 0.728913 c 0,0.400922 0.07714,1.176218 0.167201,1.722903 l 0.164296,0.99399 h 6.292031 6.292131 l 0.1643,-0.99399 z M 49.963879,23.33619 v -1.722902 h -5.301147 -5.301246 v 1.722902 1.722903 h 5.301246 5.301147 z m 46.120552,0 v -1.722902 h -5.30114 -5.30125 v 1.722902 1.722903 h 5.30125 5.30114 z"
       id="path23277" />
  </g>
</svg>
