<?xml version="1.0" encoding="UTF-8" standalone="no"?>
<!-- Created with Inkscape (http://www.inkscape.org/) -->

<svg
   width="512"
   height="512"
   viewBox="0 0 135.46666 135.46667"
   version="1.1"
   id="svg5"
   inkscape:version="1.1 (c68e22c387, 2021-05-23)"
   sodipodi:docname="bulletproof_vest.svg"
   xmlns:inkscape="http://www.inkscape.org/namespaces/inkscape"
   xmlns:sodipodi="http://sodipodi.sourceforge.net/DTD/sodipodi-0.dtd"
   xmlns="http://www.w3.org/2000/svg"
   xmlns:svg="http://www.w3.org/2000/svg">
  <sodipodi:namedview
     id="namedview7"
     pagecolor="#505050"
     bordercolor="#ffffff"
     borderopacity="1"
     inkscape:pageshadow="0"
     inkscape:pageopacity="0"
     inkscape:pagecheckerboard="1"
     inkscape:document-units="px"
     showgrid="false"
     units="px"
     inkscape:zoom="0.52420491"
     inkscape:cx="-289.96295"
     inkscape:cy="445.4365"
     inkscape:window-width="1920"
     inkscape:window-height="1017"
     inkscape:window-x="-8"
     inkscape:window-y="-8"
     inkscape:window-maximized="1"
     inkscape:current-layer="layer1" />
  <defs
     id="defs2" />
  <g
     inkscape:label="Calque 1"
     inkscape:groupmode="layer"
     id="layer1">
    <path
       style="fill:#000000;stroke-width:0.264584"
       d="m 14.555377,134.87072 c -1.72255,-0.91085 -2.12004,-1.87632 -2.12004,-5.1487 v -2.71618 l 3.77005,-0.0171 c 5.0888,-0.0171 6.32341,-0.47889 7.37387,-2.76652 0.45483,-0.99038 0.48606,-2.09682 0.48623,-17.19802 0,-15.101192 -0.0307,-16.207632 -0.48623,-17.198012 -1.06377,-2.31716 -2.27534,-2.77796 -7.29895,-2.77796 l -3.84497,-1.7e-4 v -13.63923 c 0,-11.57793 0.0597,-13.75479 0.39493,-14.40316 0.21743,-0.42001 1.55649,-1.69388 2.97576,-2.83087 13.70479,-10.97871 20.14323,-25.750515 22.29279,-51.1477512 0.1536,-1.818977 0.40892,-3.561836 0.56662,-3.873305 0.50074,-0.98884899 1.36141,-1.15371399173 6.0261,-1.15371399173 5.49858,-1.7e-4 5.56326,0.03243000173 6.24576,3.10683599173 3.87894,17.4712562 17.75183,23.7187192 26.99093,12.1549562 2.61344,-3.270847 4.48925,-7.3825742 5.545,-12.1549562 0.68011,-3.07457999 0.74496,-3.10683599173 6.24422,-3.10683599173 4.6652,0 5.52724,0.16554800173 6.02389,1.15371399173 0.15701,0.311469 0.47155,2.649617 0.70042,5.196321 1.23034,13.6885762 3.41386,22.8658932 7.415513,31.1685372 3.64307,7.558188 8.55267,13.679868 15.07355,18.795808 1.16429,0.91324 2.325,2.0388 2.58015,2.50045 0.42428,0.76972 0.46302,1.98897 0.46302,14.53663 v 13.69643 h -3.58044 c -2.42519,0 -3.85896,0.11605 -4.44401,0.36096 -1.12214,0.46865 -2.20827,1.77682 -2.55968,3.08209 -0.18603,0.68967 -0.25481,6.43025 -0.20548,17.119682 l 0.0734,16.08219 0.60861,0.97895 c 1.1549,1.85721 2.0603,2.18335 6.33672,2.28712 l 3.77022,0.0904 v 2.84657 c 0,2.51888 -0.0683,2.94982 -0.60058,3.7453 -0.33041,0.4946 -1.01513,1.10695 -1.52116,1.36193 -0.86734,0.43572 -3.92417,0.46251 -52.539383,0.46302 l -51.61846,5.1e-4 z m 82.86942,-8.14102 c 1.36432,-0.37888 2.47264,-1.38753 2.974913,-2.70798 0.37701,-0.99039 0.4166,-2.97816 0.34987,-17.54055 l -0.0751,-16.423872 -0.65724,-0.95864 c -0.360803,-0.52753 -1.098423,-1.20696 -1.638413,-1.51058 -0.95728,-0.53777 -1.25236,-0.54972 -11.79946,-0.47685 l -10.81777,0.0751 -0.9711,0.74172 c -1.85346,1.41432 -1.76471,0.45807 -1.76368,19.023482 0.001,16.62867 0.0171,16.75445 0.56525,17.67384 0.66901,1.09824 1.32301,1.60957 2.59585,2.03043 1.22386,0.40448 19.81453,0.47002 21.23773,0.0751 z m -21.07729,-3.48674 c -0.35687,-0.50893 -0.41182,-2.04409 -0.41199,-11.41614 l 1.7e-4,-10.82801 2.44686,2.36238 c 1.75532,1.6949 2.75509,2.45301 3.53624,2.68478 1.35988,0.40328 8.57451,0.42854 9.99208,0.0358 0.7308,-0.20293 1.74183,-0.97691 3.50569,-2.68341 l 2.47963,-2.39754 v 10.97803 c 0,10.29963 -0.0307,11.00517 -0.48385,11.41596 -0.43247,0.39152 -1.55614,0.43811 -10.5686,0.43794 h -10.08424 z m 2.70918,-23.17054 -3.12117,-3.121002 1.7e-4,-3.08191 c -1.7e-4,-2.88463 0.0375,-3.10803 0.58812,-3.49357 0.50637,-0.35431 1.93571,-0.41182 10.27761,-0.412 9.05119,0 9.71867,0.0324 10.12776,0.48419 0.35397,0.39015 0.43794,1.06531 0.43794,3.50978 l -1.7e-4,3.02611 -3.10872,3.108712 -3.10888,3.10872 h -4.48173 -4.48191 z m -18.5521,25.98297 c 0.41046,-0.3043 1.01445,-0.94686 1.34162,-1.42849 l 0.59512,-0.87467 V 106.9773 c 1.7e-4,-18.594932 0.0887,-17.636292 -1.76488,-19.050452 l -0.97092,-0.74172 -10.60427,-0.0768 c -5.8324,-0.0427 -10.87546,-0.0171 -11.20639,0.0734 -0.98663,0.24491 -2.67078,1.95363 -2.96313,3.00648 -0.16726,0.60382 -0.2688,6.96256 -0.26966,16.956182 -1.7e-4,15.67242 0.0171,16.01256 0.55058,17.13044 0.3572,0.73813 0.94072,1.37541 1.6536,1.80566 l 1.10166,0.66492 10.89491,-0.0683 c 10.58533,-0.0666 10.91625,-0.0836 11.64176,-0.62192 z m -22.43854,-2.66173 c -0.29184,-0.35226 -0.37752,-2.58647 -0.43674,-11.44344 l -0.0734,-11.00602 2.19,2.15638 c 3.13432,3.08363 3.21095,3.11435 8.29821,3.22204 5.76703,0.12288 5.9872,0.0512 9.03703,-2.94027 l 2.45062,-2.40214 v 10.83791 c 0,9.38092 -0.0546,10.91676 -0.41183,11.42586 l -0.41182,0.58812 h -10.1392 c -9.1058,0 -10.17606,-0.0444 -10.50221,-0.43759 z m 2.74195,-23.445312 -3.24115,-3.24115 v -2.84025 c 0,-4.25646 -1.00302,-3.89908 10.93929,-3.89908 9.23654,0 9.90948,0.0324 10.31891,0.48418 0.3526,0.38879 0.43964,1.07419 0.44732,3.50552 l 0.0171,3.02184 -3.25105,3.101382 -3.25088,3.1012 -4.36961,0.0171 -4.3696,0.0171 -3.24115,-3.241322 z m 54.43703,-20.89827 c 0.64086,-0.32768 1.52919,-1.05285 1.97429,-1.61195 l 0.80896,-1.01667 0.0717,-16.26344 c 0.0495,-11.07787 -0.0188,-16.60341 -0.21487,-17.32943 -0.17664,-0.65554 -0.73131,-1.510412 -1.44094,-2.220049 -2.09205,-2.091874 -0.60434,-1.996471 -29.79279,-1.914209 -28.70631,0.08021 -26.71138,-0.05291 -28.62883,1.921207 -1.81949,1.872741 -1.79508,1.604451 -1.71504,19.644711 l 0.0717,16.16121 0.80897,1.01667 c 0.44544,0.55876 1.33308,1.28478 1.97428,1.61195 l 1.16532,0.59529 h 26.87556 l 26.87539,-1.7e-4 z m -55.3129,-3.26214 -0.64171,-0.68267 -0.0751,-10.62816 -0.0751,-10.62817 1.40972,1.38549 1.40972,1.38565 25.33699,-1.7e-4 25.33682,1.7e-4 1.31158,-1.2271 1.31141,-1.22693 v 10.60017 10.60051 l -0.69752,0.54785 c -0.69428,0.54699 -0.78712,0.54818 -27.33841,0.54869 l -26.64141,-1.7e-4 z m 1.22727,-24.18823 -2.05927,-2.11713 0.0973,-2.85988 c 0.11093,-3.24525 0.45705,-4.0764 1.95722,-4.70343 1.34144,-0.560303 51.02487,-0.559108 52.36666,0 1.39333,0.58249 1.72904,1.52167 1.72886,4.84253 v 2.8638 l -2.0504,2.0504 -2.06235,2.03829 h -23.95936 l -23.95919,1.7e-4 -2.05893,-2.11696 z m 73.728813,72.084082 -0.58795,-0.41199 v -11.02548 -11.02564 l 2.18335,2.14956 c 2.9575,2.91176 3.16213,2.99812 7.19655,2.99761 h 3.32068 v 8.4518 c -1.7e-4,8.43372 -1.7e-4,8.45249 -0.58795,8.8638 -0.4835,0.33861 -1.50751,0.41165 -5.76209,0.41182 -4.25457,-1.7e-4 -5.27841,-0.0734 -5.76208,-0.41182 z M 8.8822075,123.41516 c -0.36028,-0.36045 -0.41558,-1.52457 -0.41558,-8.73136 v -8.31544 h 2.8441795 c 4.11344,-1.7e-4 4.53703,-0.17306 7.40835,-2.98805 l 2.44771,-2.39959 v 10.98827 c 1.7e-4,10.30884 -0.0307,11.01507 -0.48401,11.42586 -0.70725,0.63967 -11.1630395,0.65946 -11.8004795,0.0222 z m -0.41182,-26.241022 c 1.7e-4,-3.49749 0.11605,-6.45994 0.25515,-6.68095 0.20958,-0.33247 1.1561,-0.39681 5.8073095,-0.39681 6.85265,-1.7e-4 6.46353,-0.22101 6.59255,3.74292 l 0.0905,2.79929 -3.4096,3.409602 -3.4096,3.40977 h -2.96535 -2.9655195 z m 109.0672625,2.77404 -3.24115,-3.24098 v -2.78155 c 0,-4.19177 -0.37427,-3.95778 6.3241,-3.95778 4.99254,0 5.54055,0.0444 5.93804,0.48401 0.38042,0.42138 0.43793,1.28121 0.43793,6.61457 v 6.130732 h -3.11298 -3.11281 z"
       id="path20866" />
  </g>
</svg>
