<?xml version="1.0" encoding="UTF-8" standalone="no"?>
<!-- Created with Inkscape (http://www.inkscape.org/) -->

<svg
   width="512"
   height="512"
   viewBox="0 0 135.46666 135.46667"
   version="1.1"
   id="svg5"
   inkscape:version="1.1 (c68e22c387, 2021-05-23)"
   sodipodi:docname="chest.svg"
   xmlns:inkscape="http://www.inkscape.org/namespaces/inkscape"
   xmlns:sodipodi="http://sodipodi.sourceforge.net/DTD/sodipodi-0.dtd"
   xmlns="http://www.w3.org/2000/svg"
   xmlns:svg="http://www.w3.org/2000/svg">
  <sodipodi:namedview
     id="namedview7"
     pagecolor="#505050"
     bordercolor="#ffffff"
     borderopacity="1"
     inkscape:pageshadow="0"
     inkscape:pageopacity="0"
     inkscape:pagecheckerboard="1"
     inkscape:document-units="px"
     showgrid="false"
     units="px"
     inkscape:zoom="0.52420491"
     inkscape:cx="-289.96295"
     inkscape:cy="445.4365"
     inkscape:window-width="1920"
     inkscape:window-height="1017"
     inkscape:window-x="-8"
     inkscape:window-y="-8"
     inkscape:window-maximized="1"
     inkscape:current-layer="layer1" />
  <defs
     id="defs2" />
  <g
     inkscape:label="Calque 1"
     inkscape:groupmode="layer"
     id="layer1">
    <path
       fill="currentColor"
       d="m 2.4999999e-6,112.88872 c 0,4.15574 3.3701870000001,7.52606 7.5258840000001,7.52606 H 22.577859 V 75.259131 H 2.4999999e-6 Z m 0,-75.259181 V 67.733246 H 22.577859 V 15.051887 C 10.108242,15.051887 2.4999999e-6,25.160127 2.4999999e-6,37.629539 Z M 82.785082,86.548042 c 0,2.07906 -1.68381,3.763027 -3.76285,3.763027 h -22.57781 c -2.07906,0 -3.76286,-1.683967 -3.76286,-3.763027 V 75.259131 H 30.103742 V 120.41478 H 105.36289 V 75.259131 H 82.785082 Z m 30.103758,33.866738 h 15.05194 c 4.15573,0 7.52588,-3.37032 7.52588,-7.52606 V 75.259131 H 112.88884 Z M 30.103742,67.733246 h 22.57782 V 56.444335 c 0,-2.07906 1.6838,-3.762857 3.76286,-3.762857 h 22.57781 c 2.07904,0 3.76285,1.683797 3.76285,3.762857 V 67.733246 H 105.36289 V 15.051887 H 30.103742 Z M 112.88884,15.051887 v 52.681359 h 22.57782 V 37.629539 c 0,-12.469412 -10.10824,-22.577652 -22.57782,-22.577652 z M 71.496162,79.022158 V 63.970219 c 0,-2.07906 -1.68377,-3.762857 -3.76286,-3.762857 -2.07904,0 -3.76286,1.683797 -3.76286,3.762857 v 15.051939 c 0,2.07906 1.68382,3.763027 3.76286,3.763027 2.07909,0 3.76286,-1.683967 3.76286,-3.763027 z"
       data-darkreader-inline-fill=""
       id="path2-2"
       style="fill:#000000;fill-opacity:1;stroke-width:0.235185" />
  </g>
</svg>
