<?xml version="1.0" encoding="UTF-8" standalone="no"?>
<!-- Created with Inkscape (http://www.inkscape.org/) -->

<svg
   width="512"
   height="512"
   viewBox="0 0 135.46666 135.46667"
   version="1.1"
   id="svg5"
   inkscape:version="1.1 (c68e22c387, 2021-05-23)"
   sodipodi:docname="hazmat.svg"
   xmlns:inkscape="http://www.inkscape.org/namespaces/inkscape"
   xmlns:sodipodi="http://sodipodi.sourceforge.net/DTD/sodipodi-0.dtd"
   xmlns="http://www.w3.org/2000/svg"
   xmlns:svg="http://www.w3.org/2000/svg">
  <sodipodi:namedview
     id="namedview7"
     pagecolor="#505050"
     bordercolor="#ffffff"
     borderopacity="1"
     inkscape:pageshadow="0"
     inkscape:pageopacity="0"
     inkscape:pagecheckerboard="1"
     inkscape:document-units="px"
     showgrid="false"
     units="px"
     inkscape:zoom="0.52420491"
     inkscape:cx="-289.96295"
     inkscape:cy="445.4365"
     inkscape:window-width="1920"
     inkscape:window-height="1017"
     inkscape:window-x="-8"
     inkscape:window-y="-8"
     inkscape:window-maximized="1"
     inkscape:current-layer="layer1" />
  <defs
     id="defs2" />
  <g
     inkscape:label="Calque 1"
     inkscape:groupmode="layer"
     id="layer1">
    <path
       style="fill:#000000;fill-opacity:1;stroke-width:0.26468"
       d="m 11.985843,135.19751 c -5.4060257,-1.07781 -9.5716417,-4.84546 -11.40799275,-10.3182 -0.342263,-1.0202 -0.490596,-2.24784 -0.495523,-4.1026 -0.01023,-3.15246 0.695676,-5.66263 2.25155405,-8.02706 0.54337,-0.8257 6.118423,-7.03994 12.3890157,-13.809016 L 26.123986,86.633004 26.137626,63.20876 C 26.151266,39.909287 26.235636,37.251838 27.106462,32.902757 30.022446,18.33673 41.621113,5.8088758 56.027795,1.6641758 c 12.190891,-3.507186 24.95258,-1.422648 35.488368,5.796785 1.08827,0.745756 3.26058,2.5909712 4.82737,4.1005522 6.636307,6.393731 10.492757,13.581629 12.301697,22.929407 0.41105,2.124255 0.47627,5.078302 0.60215,27.296556 l 0.14131,24.914398 11.49392,12.46086 c 6.32164,6.853456 11.85105,13.031556 12.28754,13.728906 4.58946,7.33347 1.77502,17.23762 -5.9526,20.94697 -1.21694,0.58416 -2.91948,1.18946 -3.78321,1.34509 -0.86791,0.15682 -4.86458,0.28279 -8.93297,0.28279 h -7.36251 v -9.90824 c 0,-5.66843 -0.10824,-10.19343 -0.25329,-10.57457 -0.32472,-0.854 -1.64811,-1.54998 -2.52774,-1.32924 -0.36744,0.0921 -0.90449,0.46825 -1.19332,0.83542 -0.50309,0.63956 -0.5252,1.09537 -0.5252,10.82207 v 10.15456 H 67.701494 32.76362 v -10.17535 -10.17553 l -0.627339,-0.72939 c -0.811314,-0.94315 -2.281332,-1.00843 -3.150279,-0.13978 -0.586803,0.58655 -0.590008,0.63837 -0.664635,10.90475 l -0.075,10.31547 -7.600697,-0.029 c -4.180326,-0.017 -8.077061,-0.12443 -8.659398,-0.24017 z m 40.91405,-30.43794 c 3.045498,-0.57751 5.781291,-2.62677 7.164119,-5.366036 l 0.777751,-1.54077 1.246087,0.20267 c 1.581003,0.25706 9.925036,0.25774 11.224936,0 l 0.979626,-0.19364 0.727602,1.48589 c 1.893045,3.866336 6.526092,6.218496 10.679401,5.421946 2.661916,-0.51036 4.132818,-1.45657 7.593108,-4.884316 2.66674,-2.6416 3.37721,-3.51656 4.09919,-5.04813 0.78479,-1.66487 0.87374,-2.0946 0.87676,-4.23488 0,-2.1251 -0.0861,-2.57136 -0.82732,-4.13515 -0.45689,-0.96429 -1.25867,-2.22687 -1.78176,-2.80592 -1.0751,-1.18997 -3.5117,-2.58364 -4.99965,-2.85978 -1.10172,-0.20438 -1.11913,-0.24206 -1.38811,-2.99939 -0.09,-0.92593 -0.39115,-2.412504 -0.668439,-3.303491 l -0.504165,-1.619868 1.041944,-2.916546 c 2.72891,-7.63842 4.49387,-14.69728 5.69241,-22.767472 1.32091,-8.894188 1.51818,-15.906343 0.51731,-18.395379 -1.21898,-3.031606 -3.54431,-5.707976 -6.16416,-7.094827 -5.010762,-2.652166 -15.764704,-4.547665 -23.735177,-4.183566 -7.350754,0.335804 -15.81508,2.239144 -19.607579,4.408912 -2.751713,1.574355 -5.489534,5.215692 -6.18301,8.223433 -0.860066,3.730828 0.347275,16.133394 2.515253,25.836749 0.916624,4.102939 2.730473,10.342916 4.060579,13.969082 l 1.068622,2.913478 -0.505086,1.623106 c -0.277916,0.892522 -0.579133,2.380629 -0.669476,3.306559 -0.272171,2.7904 -0.270279,2.78648 -1.47745,2.97944 -4.587842,0.73366 -8.209405,5.57468 -7.856862,10.50247 0.217471,3.03962 1.276666,4.8642 4.916673,8.46974 3.334051,3.302636 4.678236,4.242206 6.937494,4.849206 1.772411,0.47626 2.431455,0.50047 4.249379,0.15512 z m -3.991134,-4.64926 c -1.162596,-0.499266 -6.480716,-5.730296 -7.165466,-7.048286 -0.552626,-1.06366 -0.68901,-3.40985 -0.263205,-4.5296 0.573406,-1.50838 3.123023,-3.58951 4.427781,-3.61406 0.169095,0 0.387674,0.46774 0.485364,1.04662 0.09801,0.57887 0.647555,2.02368 1.221592,3.21076 1.395408,2.88552 3.796794,5.30978 6.653731,6.71726 1.128232,0.55586 2.05135,1.05803 2.05135,1.11599 0,0.44779 -0.948738,1.75487 -1.654011,2.27835 -1.697904,1.260536 -3.978452,1.586456 -5.757136,0.822966 z m 33.217469,0.0989 c -1.167743,-0.408246 -2.457126,-1.448726 -2.931308,-2.365796 -0.228875,-0.44268 -0.377617,-0.82928 -0.330502,-0.85911 0.04705,-0.029 1.038485,-0.51512 2.203075,-1.07815 3.752322,-1.81419 6.729892,-5.4516 7.80794,-9.53801 0.1919,-0.72786 0.37682,-1.36009 0.41072,-1.40509 0.15648,-0.20745 2.18288,0.8465 2.85603,1.48538 1.74698,1.65805 2.26816,4.36306 1.25935,6.53674 -0.28039,0.60445 -1.78264,2.32404 -3.50115,4.00766 -2.282678,2.23624 -3.26573,3.019326 -4.068607,3.240916 -1.288888,0.35541 -2.644375,0.34638 -3.705548,-0.0239 z M 62.193875,93.645534 c -6.757354,-0.94928 -10.449333,-3.89106 -11.580445,-9.22778 -1.537878,-7.25539 2.097493,-15.798779 10.721743,-25.197524 2.610232,-2.844613 4.058192,-3.682247 6.365929,-3.682247 2.307754,0 3.755799,0.837634 6.366066,3.682247 8.610869,9.384086 12.257199,17.953384 10.721743,25.197524 -0.999876,4.71728 -3.690787,7.31984 -9.015044,8.71913 -1.690233,0.44422 -3.105346,0.5753 -7.013978,0.64979 -2.693178,0.0511 -5.647856,-0.017 -6.566014,-0.14148 z m 6.97525,-4.25823 c 2.848466,-0.52654 4.8474,-1.97749 6.225216,-4.51885 0.847895,-1.56396 0.908101,-1.83635 0.897737,-4.05862 -0.01023,-2.07533 -0.105854,-2.56472 -0.746506,-3.79969 -1.579878,-3.045587 -4.434327,-4.833016 -7.748536,-4.852108 -3.601909,-0.02045 -6.238171,1.639812 -8.06235,5.078648 -0.530433,0.99974 -0.632129,1.57367 -0.633748,3.57315 0,2.21357 0.06205,2.5008 0.907061,4.05862 1.284235,2.36886 3.130421,3.80429 5.708096,4.43789 1.711199,0.42069 1.626379,0.41864 3.45303,0.0801 z"
       id="path16011" />
  </g>
</svg>
