<?xml version="1.0" encoding="UTF-8" standalone="no"?>
<!-- Created with Inkscape (http://www.inkscape.org/) -->

<svg
   width="512"
   height="512"
   viewBox="0 0 135.46666 135.46667"
   version="1.1"
   id="svg5"
   inkscape:version="1.1 (c68e22c387, 2021-05-23)"
   sodipodi:docname="knife.svg"
   xmlns:inkscape="http://www.inkscape.org/namespaces/inkscape"
   xmlns:sodipodi="http://sodipodi.sourceforge.net/DTD/sodipodi-0.dtd"
   xmlns="http://www.w3.org/2000/svg"
   xmlns:svg="http://www.w3.org/2000/svg">
  <sodipodi:namedview
     id="namedview7"
     pagecolor="#505050"
     bordercolor="#ffffff"
     borderopacity="1"
     inkscape:pageshadow="0"
     inkscape:pageopacity="0"
     inkscape:pagecheckerboard="1"
     inkscape:document-units="px"
     showgrid="false"
     units="px"
     inkscape:zoom="0.52420491"
     inkscape:cx="-289.96295"
     inkscape:cy="445.4365"
     inkscape:window-width="1920"
     inkscape:window-height="1017"
     inkscape:window-x="-8"
     inkscape:window-y="-8"
     inkscape:window-maximized="1"
     inkscape:current-layer="layer1" />
  <defs
     id="defs2" />
  <g
     inkscape:label="Calque 1"
     inkscape:groupmode="layer"
     id="layer1">
    <path
       style="fill:#000000;stroke-width:0.264802"
       d="m 20.365804,135.08806 c -3.072,-0.6671 -3.9576,-1.3485 -11.3332996,-8.7219 -7.4938,-7.4911 -8.05659997,-8.2356 -8.76389997,-11.5872 -0.6556,-3.1056 -0.1042,-6.1513 1.57989997,-8.7305 0.5041,-0.7718 6.7686,-7.240802 13.9211996,-14.375602 l 13.0047,-12.9723 13.9033,13.899 c 7.6474,7.643802 13.904,14.019902 13.9043,14.168502 0,0.3424 -5.0853,5.4235 -5.428,5.4235 -0.14,2e-4 -3.5939,-3.3271 -7.6758,-7.3935 -8.2482,-8.217202 -8.2438,-8.214302 -10.6079,-7.311602 -1.8824,0.7187 -2.7779,2.4326 -2.387,4.568702 0.1589,0.8687 1.1762,1.9982 7.64,8.4824 l 7.4569,7.4799 -2.7719,2.7809 -2.7719,2.7809 -7.0218,-6.9771 c -3.8617,-3.8377 -7.3653,-7.234 -7.7857,-7.5471 -0.9931,-0.7405 -3.1497,-0.7797 -4.2165,-0.076 -1.5292,1.008 -2.1969,2.6858 -1.7473,4.3904 0.2388,0.9055 1.4195,2.2139 7.5442,8.3606 3.9937,4.008 7.2613,7.4227 7.2613,7.5884 0,0.4676 -3.372,3.4439 -5.0701,4.4752 -1.5478,0.9399 -4.3105,1.703 -6.0534,1.6721 -0.5098,-0.01 -1.6716,-0.1781 -2.5818,-0.3759 z m 45.8838,-30.4802 c -1.2124,-0.6305 -34.7706,-34.205102 -35.4038,-35.420702 -1.0053,-1.931 -0.2065,-4.3601 1.7371,-5.2821 1.352,-0.6414 2.5406,-0.5389 3.886,0.3352 1.5952,1.0366 34.5085,34.0809 35.08,35.2199 0.56,1.116302 0.4097,2.957702 -0.3232,3.957802 -1.0907,1.4882 -3.3596,2.0308 -4.9763,1.1902 z m 1.6538,-20.416902 -5.4946,-5.493 19.2282,-19.1935 c 14.259,-14.233 19.363296,-19.489 19.750396,-20.3366 1.391,-3.0456 -1.441496,-6.2873 -4.672396,-5.3476 -0.9102,0.2647 -3.9752,3.212 -20.5384,19.7498 l -19.4684,19.4385 -5.5405,-5.5389 -5.5407,-5.5388 24.5748,-24.7074 c 13.5163,-13.5893 24.9847,-24.9995 25.4855,-25.3564 0.8848,-0.6305 1.0905,-0.6541 7.317696,-0.8391 7.2111,-0.2143 9.92,-0.6467 14.0559,-2.2433998 3.9435,-1.5225 6.9375,-3.4008 10.4589,-6.5612 2.2747,-2.04179997 3.4683,-2.52879997 5.0418,-2.05749997 1.2901,0.3863 2.5861,1.82339997 2.8356,3.14389997 0.2843,1.505 -0.3479,8.5090998 -1.1056,12.2507998 -1.8607,9.1875 -6.2736,18.3523 -12.3576,25.6647 -2.1484,2.582 -47.845596,48.4679 -48.268896,48.4679 -0.1519,0 -2.7479,-2.4728 -5.7687,-5.4952 z"
       id="path21702" />
  </g>
</svg>
