<?xml version="1.0" encoding="UTF-8" standalone="no"?>
<!-- Created with Inkscape (http://www.inkscape.org/) -->

<svg
   width="512"
   height="512"
   viewBox="0 0 135.46666 135.46667"
   version="1.1"
   id="svg5"
   inkscape:version="1.1 (c68e22c387, 2021-05-23)"
   sodipodi:docname="knuckles.svg"
   xmlns:inkscape="http://www.inkscape.org/namespaces/inkscape"
   xmlns:sodipodi="http://sodipodi.sourceforge.net/DTD/sodipodi-0.dtd"
   xmlns="http://www.w3.org/2000/svg"
   xmlns:svg="http://www.w3.org/2000/svg">
  <sodipodi:namedview
     id="namedview7"
     pagecolor="#505050"
     bordercolor="#ffffff"
     borderopacity="1"
     inkscape:pageshadow="0"
     inkscape:pageopacity="0"
     inkscape:pagecheckerboard="1"
     inkscape:document-units="px"
     showgrid="false"
     units="px"
     inkscape:zoom="0.52420491"
     inkscape:cx="-289.96295"
     inkscape:cy="445.4365"
     inkscape:window-width="1920"
     inkscape:window-height="1017"
     inkscape:window-x="-8"
     inkscape:window-y="-8"
     inkscape:window-maximized="1"
     inkscape:current-layer="layer1" />
  <defs
     id="defs2" />
  <g
     inkscape:label="Calque 1"
     inkscape:groupmode="layer"
     id="layer1">
    <path
       style="fill:#000000;fill-opacity:1;stroke:none;stroke-width:2.84082;stroke-linecap:square;stroke-miterlimit:4;stroke-dasharray:none;stroke-opacity:1;paint-order:stroke markers fill"
       d="M 68.925228,134.2899 C 51.76703,129.70489 29.789334,112.69023 14.077619,91.827972 10.335789,86.859594 3.3611674,73.540933 1.6886713,68.170038 0.52542908,64.434789 -0.39086302,59.168622 -0.39086302,56.218213 c 0,-4.41668 4.38604782,-8.383375 8.20872752,-7.424017 0.7918507,0.198774 3.6246895,2.419445 6.2951865,4.934868 2.670497,2.515412 5.732677,4.940053 6.80487,5.38801 4.285228,1.790474 9.424259,0.220977 12.054062,-3.681328 1.67153,-2.480355 1.791354,-7.476359 0.239756,-9.992297 -0.578185,-0.937422 -3.349287,-4.171244 -6.15786,-7.186195 C 24.24509,35.242273 21.375745,31.559893 20.677306,30.074188 15.624171,19.324044 20.030726,6.8418452 30.734616,1.5856205 33.674395,0.14196113 34.549994,-0.00869987 39.948859,3.6212559e-4 47.470421,0.01324613 49.899444,1.0748204 55.72317,6.895938 61.043226,12.212891 62.293008,12.516532 67.963089,9.8651582 71.462801,8.228706 72.78495,7.92616 77.16359,7.7595546 c 6.737119,-0.2562054 10.357515,1.0394021 15.05429,5.3878924 4.280289,3.962732 6.007544,7.487751 7.007369,14.300266 1.035901,7.059164 1.785021,7.835435 8.347771,8.650768 7.80513,0.969654 13.54672,4.370975 17.33966,10.271761 3.64079,5.664143 4.00134,13.757813 0.91618,20.562211 -2.91863,6.436743 -2.74727,7.376398 2.21353,12.139228 5.02952,4.828807 7.26581,9.08468 7.73888,14.727425 0.8174,9.750294 -4.99891,18.582484 -14.42886,21.910314 -2.57333,0.9081 -4.26139,1.10703 -7.82628,0.92227 -6.58863,-0.34149 -9.7017,-1.95304 -16.858747,-8.72749 -7.862567,-7.44224 -10.582025,-8.43642 -15.827781,-5.78639 -3.654002,1.84598 -5.096405,4.3004 -5.096405,8.67189 0,4.04026 0.262304,4.49018 6.316983,10.83308 2.111852,2.21228 4.011543,4.70675 4.22145,5.54331 0.633266,2.5231 -0.206686,5.30134 -2.07889,6.87672 -1.556215,1.30947 -2.192272,1.45125 -6.3726,1.42021 -2.7434,-0.0204 -6.387524,-0.50042 -8.904912,-1.17312 z m 53.045092,-25.70439 c 4.56192,-2.67345 7.18936,-7.67862 7.16778,-13.654449 -0.015,-4.215449 -1.30089,-7.223558 -4.32302,-10.114506 -2.98907,-2.859209 -5.66697,-3.862793 -10.30695,-3.862825 -6.85147,0 -12.24421,3.797007 -14.06617,9.903964 -1.078097,3.613782 -1.05469,5.764899 0.102,9.346056 1.2252,3.79365 4.25957,7.27111 7.83713,8.98178 3.95549,1.8913 9.77686,1.63425 13.58934,-0.6 z m -55.265066,-2.81819 c 3.604398,-1.90294 5.783678,-5.25278 6.068744,-9.328178 0.193266,-2.762126 -0.02255,-3.748616 -1.391509,-6.352479 -1.478802,-2.813406 -2.066006,-3.321769 -6.726061,-5.82261 C 58.286941,80.845963 54.100064,76.622698 51.138167,70.628275 48.430306,65.14797 45.94019,63.233689 41.05992,62.880668 c -4.512959,-0.326436 -5.862917,0.103182 -8.783692,2.795486 -2.992283,2.758238 -4.578347,6.801455 -4.025178,10.261043 1.375511,8.601679 10.668242,20.532717 20.504371,26.325413 6.950678,4.09349 8.57518,4.72645 12.268157,4.78035 2.296957,0.0335 3.871532,-0.32005 5.681676,-1.27564 z M 114.00994,70.522119 c 7.98701,-4.68067 10.09188,-14.526376 4.69323,-21.953753 -6.47492,-8.908241 -20.304667,-7.611033 -25.403112,2.382842 -3.940142,7.723288 0.07838,17.585314 8.435492,20.704197 3.31472,1.236973 9.14897,0.698386 12.27439,-1.133286 z M 83.27249,42.644281 c 5.366332,-1.915066 8.90008,-6.603726 9.362092,-12.421784 0.530513,-6.680149 -2.167685,-11.817526 -7.734047,-14.725396 -7.841201,-4.0963 -18.603178,3.3e-5 -20.997627,7.991626 -2.305762,7.695909 0.676214,15.141056 7.407858,18.495596 3.370546,1.679625 8.336604,1.953643 11.961724,0.659958 z M 46.663217,33.966099 C 55.434024,29.821933 57.438077,17.233332 50.440908,10.23626 46.831465,6.6267946 40.735986,5.0883387 35.563241,6.4812229 29.456273,8.1256527 25.031035,14.21193 25.069688,20.913414 c 0.0247,4.35039 0.984794,6.851103 3.844047,10.01594 4.661236,5.15942 10.971991,6.239172 17.749482,3.036745 z"
       id="path26385" />
  </g>
</svg>
