<?xml version="1.0" encoding="UTF-8" standalone="no"?>
<!-- Created with Inkscape (http://www.inkscape.org/) -->

<svg
   width="512"
   height="512"
   viewBox="0 0 135.46666 135.46667"
   version="1.1"
   id="svg5"
   inkscape:version="1.1 (c68e22c387, 2021-05-23)"
   sodipodi:docname="pdc.svg"
   xmlns:inkscape="http://www.inkscape.org/namespaces/inkscape"
   xmlns:sodipodi="http://sodipodi.sourceforge.net/DTD/sodipodi-0.dtd"
   xmlns="http://www.w3.org/2000/svg"
   xmlns:svg="http://www.w3.org/2000/svg">
  <sodipodi:namedview
     id="namedview7"
     pagecolor="#505050"
     bordercolor="#ffffff"
     borderopacity="1"
     inkscape:pageshadow="0"
     inkscape:pageopacity="0"
     inkscape:pagecheckerboard="1"
     inkscape:document-units="px"
     showgrid="false"
     units="px"
     inkscape:zoom="0.52420491"
     inkscape:cx="-289.96295"
     inkscape:cy="445.4365"
     inkscape:window-width="1920"
     inkscape:window-height="1017"
     inkscape:window-x="-8"
     inkscape:window-y="-8"
     inkscape:window-maximized="1"
     inkscape:current-layer="layer1" />
  <defs
     id="defs2" />
  <g
     inkscape:label="Calque 1"
     inkscape:groupmode="layer"
     id="layer1">
    <path
       style="fill:#000000;stroke-width:0.264583"
       d="m 10.712582,123.03083 c -5.0697995,-1.008 -9.3716995,-6.1343 -9.3965995,-11.1978 0,-0.7511 1.5026,-12.043296 3.347,-25.093996 3.707,-26.2315 3.599,-24.6738 1.8097,-26.0384 -0.5038,-0.3832 -1.4732,-0.7546 -2.345,-0.8964 -3.1276,-0.5089 -4.1277,-1.8768 -4.1277,-5.6441 v -2.2979 H 62.975782 125.95178 l -3.7067,7.3836 c -3.6348,7.241 -3.7284,7.394 -4.8512,7.9374 -1.1339,0.549 -1.3491,0.5541 -23.550398,0.5541 l -22.406,2e-4 v 6.3136 c 0,3.4728 -0.1212,6.9549 -0.2704,7.7379 -0.9009,4.7519 -4.7385,8.5895 -9.4906,9.4909 -0.7831,0.1485 -5.2483,0.2699 -9.923,0.2699 h -8.4991 l -1.2945,10.252596 c -0.7118,5.639 -1.4441,10.9754 -1.6274,11.8584 -0.5119,2.4692 -1.3828,4.0535 -3.277,5.9619 -3.3992,3.4258 -4.5292,3.6762 -16.418,3.6434 -4.8749,-0.017 -9.3414,-0.1195 -9.9249,-0.2353 z m 38.0878,-41.381096 c -0.4988,-1.0798 -1.0847,-2.7168 -1.3018,-3.6383 -0.6361,-2.6977 -0.4984,-7.2291 0.2992,-9.851 0.1399,-0.4606 0.048,-0.4886 -1.0921,-0.3326 -5.845,0.8011 -8.8781,7.3246 -5.6626,12.1789 1.5198,2.2948 4.0332,3.5811 7.0276,3.597 l 1.6365,0.017 -0.9068,-1.9626 z m 13.3446,0.8185 c 1.242,-1.1358 1.3549,-1.8457 1.3549,-8.5048 v -6.2261 h -3.5392 -3.5393 l -0.5595,1.3007 c -0.308,0.7154 -0.6777,2.1331 -0.8221,3.1505 -0.5121,3.6121 0.5984,6.7715 3.3512,9.5336 1.4777,1.4776 1.7632,1.6594 2.4005,1.5015 0.3981,-0.099 1.0074,-0.4388 1.3535,-0.7554 z M -1.75e-5,37.661934 c 0,-5.7902 0.043,-6.3563 0.5451,-7.396 0.5938,-1.2273 2.1704,-2.2163 3.5333,-2.2161 1.0525,0 2.4585,-0.7352 3.0831,-1.6126 0.2956,-0.4139 0.6439,-1.413 0.7752,-2.2189 0.3162,-1.9432 0.9503,-2.9477 2.2612995,-3.5824 0.9918,-0.4799 1.6468,-0.5235 7.8949,-0.5236 6.3691,10e-5 6.8038,0.031 6.6654,0.463 -0.08,0.2545 -1.8557,5.5828 -3.9428,11.8402 l -3.7947,11.3769 -8.5102995,0.07 -8.5105,0.07 z m 25.5100995,5.8073 c 0.084,-0.2581 1.8578,-5.5902 3.9447,-11.8475 l 3.7945,-11.3772 3.7683,-0.073 c 3.5098,-0.068 3.7581,-0.041 3.618,0.397 -0.084,0.2593 -1.8581,5.59 -3.9448,11.8475 l -3.7946,11.3772 -3.7683,0.073 c -3.5095,0.068 -3.7581,0.041 -3.618,-0.3972 z m 15.8774,-0.017 c 0.082,-0.2551 1.8558,-5.5826 3.9428,-11.84 l 3.7947,-11.377 35.2333,-0.066 35.233098,-0.067 2e-4,-2.2966 c -2e-4,-2.9696 0.5796,-4.3017 2.2159,-5.0937 1.415,-0.6851 2.0905,-0.6851 3.5055,-2e-4 1.6367,0.7924 2.216,2.1243 2.216,5.0947 v 2.2977 h 2.2978 c 2.9706,0 4.3024,0.5794 5.0948,2.2161 0.5215,1.0774 0.5451,1.5672 0.5451,11.3611 v 10.2354 H 88.352782 c -44.7502,0 -47.1061,-0.024 -46.9653,-0.4632 z"
       id="path21023" />
  </g>
</svg>
