<?xml version="1.0" encoding="UTF-8" standalone="no"?>
<!-- Created with Inkscape (http://www.inkscape.org/) -->

<svg
   width="512"
   height="512"
   viewBox="0 0 135.46666 135.46667"
   version="1.1"
   id="svg5"
   inkscape:version="1.1 (c68e22c387, 2021-05-23)"
   sodipodi:docname="radio.svg"
   xmlns:inkscape="http://www.inkscape.org/namespaces/inkscape"
   xmlns:sodipodi="http://sodipodi.sourceforge.net/DTD/sodipodi-0.dtd"
   xmlns="http://www.w3.org/2000/svg"
   xmlns:svg="http://www.w3.org/2000/svg">
  <sodipodi:namedview
     id="namedview7"
     pagecolor="#505050"
     bordercolor="#ffffff"
     borderopacity="1"
     inkscape:pageshadow="0"
     inkscape:pageopacity="0"
     inkscape:pagecheckerboard="1"
     inkscape:document-units="px"
     showgrid="false"
     units="px"
     inkscape:zoom="0.52420491"
     inkscape:cx="-289.96295"
     inkscape:cy="445.4365"
     inkscape:window-width="1920"
     inkscape:window-height="1017"
     inkscape:window-x="-8"
     inkscape:window-y="-8"
     inkscape:window-maximized="1"
     inkscape:current-layer="layer1" />
  <defs
     id="defs2" />
  <g
     inkscape:label="Calque 1"
     inkscape:groupmode="layer"
     id="layer1">
    <path
       style="fill:#000000;stroke-width:0.264742"
       d="M 32.06542,124.2619 C 29.372007,123.41087 28.746832,122.85645 15.239444,109.33831 0.69093197,94.775627 0.76777797,94.866611 0.13840097,91.304418 c -0.365219,-2.072981 0,-4.449794 1.00380093,-6.46272 0.537122,-1.081177 6.792067,-7.482901 30.8958011,-31.619834 16.622354,-16.645048 30.543995,-30.435046 30.937125,-30.643841 1.54313,-0.81954 3.48059,-0.30048 5.31438,1.423613 l 0.73444,0.690553 2.97158,-2.954629 c 1.63698,-1.622812 3.30748,-3.079554 3.71733,-3.232406 1.15479,-0.430968 2.344,-0.329507 3.35361,0.285881 1.16039,0.707414 1.5126,1.165598 1.86832,2.431537 0.48489,1.724843 -0.018,2.626372 -3.35311,6.016543 l -3.0059,3.055449 1.58805,1.571141 1.58805,1.571071 2.97618,-2.959112 c 1.63918,-1.625093 3.31158,-3.083837 3.72153,-3.236728 1.91345,-0.713938 4.06093,0.142185 4.94656,1.972151 1.06214,2.193713 0.71483,2.961023 -3.05703,6.754354 l -3.03091,3.047865 4.56533,4.565334 4.56543,4.565314 12.959262,-12.95926 12.95917,-12.959341 -0.073,-1.188391 c -0.043,-0.695637 0.10596,-1.565888 0.35892,-2.098878 0.23774,-0.500799 2.0115,-2.463525 3.94216,-4.361441 3.76685,-3.703198 4.3404,-4.026411 6.44516,-3.631505 1.33049,0.249539 5.76535,4.534155 6.20221,5.991828 0.61017,2.03666 0.24985,2.676793 -3.81989,6.784403 -3.94406,3.980844 -4.73713,4.493311 -6.5133,4.209301 l -0.97278,-0.155533 -12.96206,12.962042 -12.961962,12.961962 1.74484,1.790192 c 0.959382,0.984809 1.940762,2.084658 2.180112,2.444674 0.501,0.754071 0.58195,2.928913 0.14158,3.797243 -0.1615,0.317961 -1.72273,2.022121 -3.469582,3.786748 -2.843,2.8728 -3.14548,3.265756 -2.88332,3.755239 0.48559,0.907493 0.3382,2.443103 -0.34611,3.602687 -0.64969,1.100889 -8.28266,8.55019 -9.33809,9.113047 -0.73044,0.389694 -2.3333,0.398379 -3.04663,0.01601 -0.49589,-0.265369 -2.41274,1.572331 -21.09573,20.224649 -14.31347,14.29084 -20.902216,20.69279 -21.710199,21.09734 -2.642483,1.32295 -5.76065,1.68283 -8.120363,0.93722 z m 4.77696,-17.34383 c 0.58385,-0.4848 0.998898,-1.80647 0.809385,-2.57848 -0.221633,-0.90308 -15.78005,-16.640461 -16.956054,-17.151216 -1.73614,-0.753942 -3.57394,0.452741 -3.57394,2.346665 -10e-5,1.061806 0.131779,1.211655 8.140975,9.257664 4.477181,4.498417 8.488683,8.330457 8.913838,8.516277 0.796677,0.34829 1.984988,0.17403 2.665796,-0.39091 z m 7.568632,-7.659178 c 0.58315,-0.58315 0.773664,-1.021222 0.773664,-1.777435 2e-4,-0.963667 -0.3333,-1.337681 -8.390125,-9.408944 -5.725328,-5.739487 -8.622163,-8.456054 -9.121162,-8.565659 -0.956973,-0.210196 -2.447865,0.503131 -2.836898,1.357373 -0.401541,0.880757 -0.380128,1.572711 0.07504,2.436699 0.207224,0.393265 3.997894,4.318646 8.423844,8.723303 8.026206,7.987941 8.050721,8.008181 9.174694,8.008471 0.892935,4e-5 1.287971,-0.160831 1.901038,-0.773858 z m 7.412839,-7.412719 c 0.614768,-0.615099 0.773864,-1.007183 0.773864,-1.910704 v -1.136851 l -8.414539,-8.414279 c -7.503193,-7.503323 -8.504893,-8.414309 -9.253441,-8.414168 -0.461377,-2e-5 -1.136981,0.135551 -1.500599,0.30139 -0.854512,0.389173 -1.567539,1.880126 -1.357613,2.837009 0.109866,0.499079 2.828194,3.393822 8.56593,9.121242 8.071033,8.056865 8.445157,8.390044 9.408734,8.390134 0.756453,1.1e-4 1.194315,-0.190754 1.777664,-0.773773 z M 78.172228,67.138567 c 6.63978,-6.656746 6.89093,-7.018312 6.07464,-8.738923 -0.23164,-0.488192 -4.32029,-4.767064 -9.08574,-9.508714 -9.1804,-9.133729 -9.37662,-9.286061 -11.04732,-8.562227 -0.43666,0.189373 -3.504596,3.07344 -6.817179,6.409088 -5.374019,5.412201 -6.022907,6.157337 -6.022807,6.925327 0,0.473183 0.169602,1.182108 0.376926,1.575203 0.207024,0.393196 4.294972,4.616595 9.08424,9.38527 l 8.70731,8.670502 1.29508,-1e-5 1.29477,-4e-5 z"
       id="path23389" />
  </g>
</svg>
