<?xml version="1.0" encoding="UTF-8" standalone="no"?>
<!-- Created with Inkscape (http://www.inkscape.org/) -->

<svg
   width="512"
   height="512"
   viewBox="0 0 135.46666 135.46667"
   version="1.1"
   id="svg5"
   inkscape:version="1.1 (c68e22c387, 2021-05-23)"
   sodipodi:docname="receipt.svg"
   xmlns:inkscape="http://www.inkscape.org/namespaces/inkscape"
   xmlns:sodipodi="http://sodipodi.sourceforge.net/DTD/sodipodi-0.dtd"
   xmlns="http://www.w3.org/2000/svg"
   xmlns:svg="http://www.w3.org/2000/svg">
  <sodipodi:namedview
     id="namedview7"
     pagecolor="#505050"
     bordercolor="#ffffff"
     borderopacity="1"
     inkscape:pageshadow="0"
     inkscape:pageopacity="0"
     inkscape:pagecheckerboard="1"
     inkscape:document-units="px"
     showgrid="false"
     units="px"
     inkscape:zoom="0.52420491"
     inkscape:cx="-289.96295"
     inkscape:cy="445.4365"
     inkscape:window-width="1920"
     inkscape:window-height="1017"
     inkscape:window-x="-8"
     inkscape:window-y="-8"
     inkscape:window-maximized="1"
     inkscape:current-layer="layer1" />
  <defs
     id="defs2" />
  <g
     inkscape:label="Calque 1"
     inkscape:groupmode="layer"
     id="layer1">
    <path
       fill="currentColor"
       d="M 111.7554,0.8536973 101.59644,12.70581 87.204652,0.8536973 a 4.2064307,4.2064307 0 0 0 -5.07955,0 L 67.733316,12.70581 53.341513,0.8536973 a 4.2064307,4.2064307 0 0 0 -5.079447,0 L 33.870263,12.70581 23.711316,0.8536973 c -2.804308,-2.089983 -6.772614,-0.105813 -6.772614,3.386367 V 131.2266 c 0,3.49218 3.968306,5.47635 6.772614,3.38636 l 10.158947,-11.85211 14.391803,11.85211 a 4.2064307,4.2064307 0 0 0 5.079447,0 l 14.391803,-11.85211 14.391786,11.85211 a 4.2064307,4.2064307 0 0 0 5.07955,0 l 14.391788,-11.85211 10.15896,11.85211 c 2.77774,2.08999 6.77256,0.10582 6.77256,-3.38636 V 4.2400643 c 0,-3.49218 -3.96835,-5.47635 -6.77256,-3.386367 z M 101.59644,95.247173 c 0,1.16395 -0.95246,2.11644 -2.116578,2.11644 H 35.986699 c -1.164048,0 -2.116436,-0.95249 -2.116436,-2.11644 v -4.23287 c 0,-1.16412 0.952388,-2.11643 2.116436,-2.11643 h 63.493163 c 1.164118,0 2.116578,0.95231 2.116578,2.11643 z m 0,-25.397405 c 0,1.164117 -0.95246,2.116437 -2.116578,2.116437 H 35.986699 c -1.164048,0 -2.116436,-0.95232 -2.116436,-2.116437 v -4.232873 c 0,-1.164117 0.952388,-2.116436 2.116436,-2.116436 h 63.493163 c 1.164118,0 2.116578,0.952319 2.116578,2.116436 z m 0,-25.397239 c 0,1.163947 -0.95246,2.116437 -2.116578,2.116437 H 35.986699 c -1.164048,0 -2.116436,-0.95249 -2.116436,-2.116437 v -4.232873 c 0,-1.164117 0.952388,-2.116436 2.116436,-2.116436 h 63.493163 c 1.164118,0 2.116578,0.952319 2.116578,2.116436 z"
       data-darkreader-inline-fill=""
       id="path2-4"
       style="fill:#000000;fill-opacity:1;stroke-width:0.264555" />
  </g>
</svg>
