<?xml version="1.0" encoding="UTF-8" standalone="no"?>
<!-- Created with Inkscape (http://www.inkscape.org/) -->

<svg
   width="512"
   height="512"
   viewBox="0 0 135.46666 135.46667"
   version="1.1"
   id="svg5"
   inkscape:version="1.1 (c68e22c387, 2021-05-23)"
   sodipodi:docname="safe.svg"
   xmlns:inkscape="http://www.inkscape.org/namespaces/inkscape"
   xmlns:sodipodi="http://sodipodi.sourceforge.net/DTD/sodipodi-0.dtd"
   xmlns="http://www.w3.org/2000/svg"
   xmlns:svg="http://www.w3.org/2000/svg">
  <sodipodi:namedview
     id="namedview7"
     pagecolor="#505050"
     bordercolor="#ffffff"
     borderopacity="1"
     inkscape:pageshadow="0"
     inkscape:pageopacity="0"
     inkscape:pagecheckerboard="1"
     inkscape:document-units="px"
     showgrid="false"
     units="px"
     inkscape:zoom="0.52420491"
     inkscape:cx="-289.96295"
     inkscape:cy="445.4365"
     inkscape:window-width="1920"
     inkscape:window-height="1017"
     inkscape:window-x="-8"
     inkscape:window-y="-8"
     inkscape:window-maximized="1"
     inkscape:current-layer="layer1" />
  <defs
     id="defs2" />
  <g
     inkscape:label="Calque 1"
     inkscape:groupmode="layer"
     id="layer1">
    <path
       style="fill:#000000;stroke-width:0.26458"
       d="m 10.134252,130.68171 c -0.7932925,-0.3927 -1.2660875,-0.87039 -1.6535835,-1.67079 -0.502495,-1.03809 -0.542595,-1.60788 -0.543195,-7.71792 l -7e-4,-6.59713 -1.510485,-0.7894 C 4.5833075,112.94348 2.4965275,110.8985 1.5307375,109.10902 -0.07934651,106.12615 6.524907e-4,108.48283 6.524907e-4,64.009172 6.524907e-4,37.463333 0.09465249,22.861277 0.27074949,21.931387 1.1718405,17.179634 5.0095025,13.342072 9.7612555,12.440881 10.643347,12.273582 18.118672,12.170783 29.405261,12.170783 H 47.62518 v 7.930922 7.930921 l -14.618055,0.073 -14.618155,0.073 -0.827192,0.590094 c -1.799982,1.283987 -1.686283,-1.076389 -1.686283,34.996055 0,36.072343 -0.113699,33.712066 1.686283,34.995953 l 0.827192,0.590095 14.618155,0.073 14.618055,0.073 v 7.930917 7.93092 h -7.937421 -7.937422 v 6.26644 c 0,5.78654 -0.042,6.35263 -0.545094,7.39232 -0.395696,0.8175 -0.853492,1.27529 -1.670984,1.67109 -1.065989,0.51599 -1.582984,0.54499 -9.707403,0.54479 -8.15672,-2e-4 -8.636515,-0.027 -9.692604,-0.55019 z m 95.778248,0 c -0.79329,-0.3927 -1.26619,-0.87039 -1.65358,-1.67079 -0.5003,-1.03329 -0.5426,-1.60988 -0.5426,-7.38272 v -6.26184 l -6.617528,-0.071 -6.61744,-0.071 13.562768,-8.14182 c 7.45943,-4.47795 13.81766,-8.347512 14.12936,-8.59881 1.49648,-1.206888 1.41769,0.724493 1.41769,-34.720256 0,-35.444751 0.079,-33.51347 -1.41769,-34.720258 -0.3117,-0.251397 -6.66973,-4.120859 -14.12906,-8.598915 l -13.562268,-8.141819 16.865238,-0.068 c 10.56169,-0.043 17.40712,0.032 18.31501,0.199898 4.76746,0.881291 8.62922,4.728053 9.53351,9.496506 0.1763,0.92989 0.2701,15.531946 0.2701,42.077785 0,44.473658 0.08,42.116978 -1.53009,45.099848 -0.96589,1.78948 -3.05267,3.83446 -4.89555,4.79745 l -1.51058,0.7894 -5e-4,6.59713 c -5e-4,6.11974 -0.04,6.67853 -0.5457,7.72302 -0.39569,0.8175 -0.85359,1.27529 -1.67098,1.67109 -1.06599,0.51599 -1.58309,0.54499 -9.70751,0.54479 -8.15661,-2e-4 -8.63641,-0.027 -9.6925,-0.55019 z m -48.15372,-7.93742 c -0.793292,-0.3927 -1.266088,-0.8704 -1.653584,-1.67079 -0.541895,-1.11929 -0.542595,-1.19779 -0.542595,-57.309426 V 7.5754289 L 56.107696,6.44944 C 56.503392,5.6320481 56.961188,5.1741527 57.77868,4.7784566 58.822369,4.2732616 59.381864,4.233362 65.435604,4.233362 h 6.531035 v 59.530712 59.530606 l -6.548435,-2e-4 c -6.09794,-2e-4 -6.624735,-0.038 -7.659424,-0.55019 z M 79.904062,63.764074 c 0,-27.42073 0.1,-48.424122 0.2305,-48.374223 0.12669,0.049 7.27042,4.314358 15.87484,9.479507 l 15.644338,9.391306 v 29.50341 29.503308 l -15.644338,9.391298 c -8.60442,5.16525 -15.74815,9.43101 -15.87484,9.47951 -0.1305,0.05 -0.2305,-20.953388 -0.2305,-48.374116 z m 14.05166,19.573506 c 4.75175,-0.901191 8.589308,-4.738853 9.490508,-9.490606 0.14919,-0.786592 0.27009,-5.299647 0.27009,-10.0829 0,-4.783252 -0.1209,-9.29631 -0.27009,-10.083002 -0.9147,-4.823152 -4.761758,-8.614115 -9.661508,-9.520406 -2.83077,-0.523594 -4.63385,0.123099 -5.51374,1.977381 -0.825,1.738383 -0.3128,3.878861 1.18298,4.943951 0.4145,0.295197 1.41299,0.643993 2.21888,0.775092 1.94328,0.316297 2.94787,0.950391 3.58247,2.261378 0.48859,1.00929 0.52359,1.652883 0.52359,9.645606 0,7.992721 -0.035,8.636215 -0.52359,9.645605 -0.6346,1.310887 -1.63919,1.94508 -3.58247,2.261277 -0.80589,0.131199 -1.80438,0.479995 -2.21888,0.775092 -2.30947,1.644584 -1.99028,5.463646 0.5619,6.721534 1.01559,0.500595 1.97758,0.542095 3.93986,0.169998 z"
       id="path22493" />
  </g>
</svg>
