<svg class="svg-inline--fa fa-users fa-w-20 fa-7x" aria-hidden="true" data-icon="users" data-prefix="fas" focusable="false" role="img" version="1.1" viewBox="0 0 512 512" xmlns="http://www.w3.org/2000/svg">
 <g transform="matrix(3.7964 0 0 3.7964 -1.6954 -.84769)" stroke-linecap="square" stroke-width="1.6878">
  <path transform="scale(.26458)" d="m36.288 442.14c0-0.50113 1.5064-3.864 3.3477-7.4731 1.8412-3.6091 5.2591-13.158 7.5952-21.219l4.2476-14.657v-142.89c0-137.42-0.12841-143.35-3.3558-155-1.8457-6.6604-5.2635-16.424-7.5952-21.696-2.3317-5.2724-4.2394-9.8713-4.2394-10.22s99.034-0.6339 220.08-0.6339h220.08l-5.7886 13.389c-11.069 25.603-10.879 22.296-10.347 179.6l0.48018 142.05 3.9862 11.815c2.1924 6.4981 5.8113 15.423 8.042 19.832l4.0558 8.0172h-220.29c-121.16 0-220.29-0.41003-220.29-0.91116zm178.6-61.288c3.6695-1.0329 2.4478-3.0477-19.854-32.744-13.07-17.404-24.323-31.644-25.006-31.644-3.9662 0-47.532 15.722-46.809 16.892 0.48084 0.77802 9.3535 7.739 19.717 15.469l18.843 14.054-12.407 1.0477v18.362l30.803-0.16827c16.942-0.0925 32.562-0.66354 34.713-1.2689zm34.054-15.019-0.0118-16.456-24.659-45.971c-13.563-25.284-25.313-45.567-26.112-45.073-1.7872 1.1046-15.031 42.138-15.031 46.571 0 1.7597 12.545 19.891 27.878 40.293 25.411 33.811 28.324 37.093 32.913 37.093h5.0343l-0.0118-16.456zm52.855-21.707 28.369-38.017-7.818-24.597c-6.5984-20.76-8.1734-24.231-10.096-22.25-1.2529 1.2908-12.585 21.715-25.182 45.387l-22.904 43.04-0.0118 17.3-0.0104 17.3 4.6415-0.0734c4.0591-0.0641 8.2012-4.8436 33.011-38.09zm61.929 28.88v-9.283h-13.842l19.158-14.6c10.537-8.0298 19.516-14.907 19.953-15.282 1.5947-1.369-4.6042-4.0154-25.254-10.781-12.81-4.1972-21.905-6.35-23.177-5.4861-1.1513 0.78207-12.319 15.093-24.817 31.803-20.908 27.953-22.427 30.469-19.019 31.478 2.0376 0.6037 17.946 1.1733 35.352 1.2659l31.647 0.16824zm-219.94-63.994 23.947-7.9485 7.9485-23.947c4.3716-13.171 8.2978-24.896 8.7247-26.056 0.6051-1.6447-6.8912-2.1098-34.005-2.1098h-34.781v34.781c0 27.114 0.4651 34.61 2.1098 34.005 1.1604-0.42692 12.886-4.353 26.056-8.7247zm252.62 2.8104c0.57539-3.4811 1.0545-19.051 1.0647-34.6l0.0186-28.271h-34.6c-26.538 0-34.6 0.49118-34.6 2.1078 0 1.1593 3.4837 12.561 7.7415 25.336 5.6443 16.936 8.7043 23.744 11.296 25.131 3.1814 1.7026 44.413 16.178 46.989 16.497 0.57475 0.0711 1.5158-2.7189 2.0912-6.2001zm-147.45-39.873v-42.827l-24.704-16.298c-13.587-8.9639-24.917-16.085-25.177-15.825-0.26006 0.26006 1.2071 9.6263 3.2604 20.814 3.6662 19.976 4.0769 20.991 22.885 56.542 18.226 34.452 21.637 40.42 23.098 40.42 0.35049 0 0.63725-19.272 0.63725-42.827zm39.198-0.21302c17.453-32.894 18.003-34.268 21.533-53.762 1.9919-11.003 3.3598-20.268 3.0398-20.588s-11.378 6.404-24.574 14.942l-23.992 15.524-6.1e-4 43.883c-5.9e-4 43.027 0.0587 43.785 3.0416 38.82 1.6732-2.7849 11.102-20.254 20.953-38.82zm-6.276-72.841c13.455-8.9645 24.464-16.759 24.464-17.321s-11.393-12.396-25.317-26.297l-25.317-25.275-25.323 25.28c-13.927 13.904-25.13 25.855-24.895 26.556 0.64715 1.9324 47.374 33.126 49.806 33.249 1.1657 0.0591 13.128-7.2272 26.583-16.192z" style="paint-order:stroke markers fill"/>
  <path transform="scale(.26458)" d="m19.41 18.566v-17.722h474.28v35.444h-474.28z" style="paint-order:stroke markers fill"/>
  <path transform="scale(.26458)" d="m19.41 492.85v-17.722h474.28v35.444h-474.28z" style="paint-order:stroke markers fill"/>
 </g>
</svg>
