<svg width="512" height="512" version="1.1" viewBox="0 0 135.47 135.47" xmlns="http://www.w3.org/2000/svg">
 <path d="m110.07 2.4997e-6h-84.667a16.933 16.933 0 0 0-16.933 16.933v110.07a8.4667 8.4667 0 0 0 8.4666 8.4668h101.6a8.4667 8.4667 0 0 0 8.4668-8.4668v-110.07a16.933 16.933 0 0 0-16.933-16.933zm-52.917 16.933a6.35 6.35 0 1 1-6.35 6.35 6.35 6.35 0 0 1 6.35-6.35zm-31.75 6.35a6.35 6.35 0 1 1 6.35 6.35 6.35 6.35 0 0 1-6.35-6.35zm42.333 95.25a38.1 38.1 0 1 1 38.1-38.1 38.1 38.1 0 0 1-38.1 38.1zm9.7551-43.302a13.555 13.555 0 0 1-19.51 0 13.703 13.703 0 0 1-19.378 0.26453 29.305 29.305 0 0 0-0.50005 4.9372 29.633 29.633 0 0 0 59.267 0 29.305 29.305 0 0 0-0.50005-4.9451 13.703 13.703 0 0 1-19.378-0.26453z" stroke-width=".26458" data-darkreader-inline-fill=""/>
</svg>
