<svg
   aria-hidden="true"
   focusable="false"
   data-prefix="fas"
   data-icon="shopping-basket"
   role="img"
   viewBox="0 0 512 512"
   class="svg-inline--fa fa-shopping-basket fa-w-18 fa-7x"
   xmlns="http://www.w3.org/2000/svg"
   xmlns:svg="http://www.w3.org/2000/svg">
  <path
     fill="currentColor"
     d="m 61.000027,469.27554 v -14.97203 l 14.178422,-0.27737 14.178871,-0.27736 -38.136854,-28.49977 c -20.975079,-15.6751 -38.15545,-28.72877 -38.178477,-29.00871 -0.08707,-1.0411 86.17012,-29.1758 86.91778,-28.35015 0.427651,0.47089 19.800971,26.28407 43.051031,57.35886 23.25012,31.07477 42.71432,57.06276 43.25364,57.75038 0.78198,0.99659 -11.78784,1.24943 -62.14215,1.24943 H 61.000027 Z M 174.20438,416.4984 c -27.94394,-37.26263 -51.1551,-68.32387 -51.58069,-69.02566 -0.69839,-1.15206 26.62141,-85.60706 28.29517,-87.46801 0.36637,-0.40638 20.78645,37.05172 45.37496,83.24686 l 44.70614,83.99058 v 28.50301 28.503 h -7.99403 -7.99437 z m 96.79552,39.25388 v -28.49655 l 44.70015,-84.0035 c 24.58471,-46.20223 45.00363,-83.66678 45.37485,-83.25395 1.67729,1.86352 29.00168,86.31918 28.30129,87.47446 -0.42572,0.70179 -23.63663,31.76303 -51.58057,69.02566 l -50.80718,67.74978 h -7.99398 -7.99456 z m 54.7507,27.24581 c 0.54765,-0.68696 19.77569,-26.44983 42.72864,-57.24983 22.95315,-30.79998 42.3144,-56.61318 43.02543,-57.36271 1.08353,-1.14236 8.25888,0.95723 44.394,12.9911 23.70559,7.89463 43.08237,14.58305 43.05934,14.863 -0.0387,0.27737 -17.20333,13.33361 -38.17846,29.00871 l -38.13699,28.49978 14.1788,0.27737 14.17862,0.27737 v 14.97266 14.97264 h -63.12227 c -50.3625,0 -62.92121,-0.25157 -62.12711,-1.25009 z M 5e-7,306.35533 V 244.24835 H 62.107106 c 49.264114,0 62.011774,0.25802 61.647074,1.25009 -0.25351,0.68761 -7.10492,21.27469 -15.22655,45.75007 -8.1222,24.47473 -15.275701,45.00827 -15.897641,45.63009 -0.62118,0.61923 -21.154969,7.7753 -45.630093,15.89701 C 22.525226,360.89794 1.9376985,367.74954 1.2500875,368.0024 0.2585335,368.37007 4.9999999e-7,355.61958 5e-7,306.35533 Z M 465.29147,352.91944 c -24.86428,-8.34423 -45.62074,-15.62091 -46.12489,-16.17114 -0.50443,-0.54829 -7.56393,-21.02506 -15.68885,-45.49979 -8.12498,-24.47538 -14.9791,-45.06246 -15.23183,-45.75007 -0.36638,-0.99142 12.38288,-1.25009 61.647,-1.25009 H 512 v 61.9999 c 0,34.10002 -0.33606,61.96443 -0.75025,61.92122 -0.41217,-0.0645 -21.09349,-6.90579 -45.95828,-15.25003 z m -262.09165,-60.7111 -37.29271,-70.03903 -6.4889,-35.6036 c -3.569,-19.58211 -6.36061,-35.98804 -6.20373,-36.45763 0.15872,-0.47089 19.97293,12.26735 44.03555,28.30432 l 43.74993,29.15837 v 77.33829 c 0,42.53649 -0.11281,77.33959 -0.25284,77.33959 -0.13995,0 -17.03563,-31.51792 -37.54672,-70.04031 z m 67.80008,-7.13221 v -77.50536 l 43.75007,-29.15837 c 24.06262,-16.03697 43.87842,-28.77391 44.03555,-28.30432 0.15872,0.47087 -2.63504,16.8781 -6.20469,36.46408 l -6.49033,35.61005 -37.14968,69.78294 c -20.43222,38.38113 -37.32754,69.97065 -37.54517,70.19965 -0.21933,0.22576 -0.39605,-34.46059 -0.39605,-77.08867 z m -61.30093,-134.59328 -45.80096,-30.62971 46.05085,-46.050653 46.0513,-46.051305 46.05086,46.051305 46.05097,46.050653 -46.04911,30.69743 c -25.32728,16.8839 -46.16276,30.66711 -46.30105,30.63035 -0.13995,-0.0645 -20.86213,-13.85158 -46.05286,-30.69807 z"
     id="path3622" />
</svg>
