<svg class="svg-inline--fa fa-users fa-w-20 fa-7x" aria-hidden="true" data-icon="users" data-prefix="fas" focusable="false" role="img" version="1.1" viewBox="0 0 512 512" xmlns="http://www.w3.org/2000/svg">
 <g transform="matrix(3.7964 0 0 3.7964 -1.6954 -.84769)">
  <path d="m5.0155 0.22329v9.1377h125.73v-9.1377h-62.863zm62.706 17.961c-31.889 0-57.979 0.05917-57.979 0.1315 0 0.07225 0.29937 0.81668 0.66521 1.6543 1.3564 3.1055 2.4872 6.8901 2.797 9.361 0.19903 1.5872 0.31868 16.537 0.31868 39.761v37.217l-1.1319 3.5757c-0.62273 1.9666-1.4609 4.3186-1.8626 5.2268-0.40165 0.90822-0.64823 1.7331-0.54815 1.8332 0.10004 0.10003 26.251 0.18202 58.114 0.18202h57.932l-0.83951-1.6543c-0.46158-0.90986-1.3665-3.1431-2.0111-4.9628l-1.1721-3.3085-0.20214-31.826c-0.2089-32.887 0.0151-45.299 0.88128-48.868 0.2559-1.0544 1.0395-3.2412 1.7414-4.8597 0.70196-1.6185 1.2763-3.0599 1.2763-3.2033 0-0.14342-26.091-0.26094-57.979-0.26094zm6e-3 15.913 6.81 6.8543c5.7649 5.8026 6.7489 6.9274 6.4154 7.3292-0.44229 0.53293-7.5257 5.3618-10.795 7.3591-1.1729 0.71655-2.3782 1.3021-2.6784 1.3016-0.69336-9.97e-4 -13.307-8.4323-13.307-8.8943 0-0.18911 3.0497-3.405 6.7775-7.1467zm-15.131 17.741 1.1814 0.69667c0.64991 0.38295 3.6973 2.3465 6.7718 4.3636l5.5899 3.6674 3e-3 6.1731c2e-3 3.3951-0.08981 8.5354-0.2037 11.423-0.11387 2.8872-0.29688 5.2495-0.40635 5.2495-0.66284 0-10.091-17.987-11.149-21.27-0.55215-1.7135-1.7873-8.3059-1.7873-9.5389zm30.019 0.41512c0.05548 0.01018 0.0953 0.03652 0.13098 0.07225 0.25618 0.25618-0.60008 5.7978-1.3877 8.9809-0.49414 1.9971-3.4947 8.1295-8.1827 16.725-1.3636 2.5002-2.631 4.5962-2.8166 4.658-0.51432 0.17144-0.74355-4.0624-0.74566-13.777l-9.98e-4 -8.6694 5.4357-3.4849c6.0135-3.8556 7.1789-4.5761 7.5675-4.5049zm-52.484 13.484 9.1588 0.0928c5.0373 0.05099 9.2698 0.20353 9.4053 0.33931 0.13552 0.13577-0.75088 3.2469-1.9693 6.9136l-2.2153 6.6666-6.8249 2.2777c-4.2451 1.4167-6.9006 2.1563-7.0245 1.9559-0.10949-0.17715-0.27359-4.3551-0.36458-9.2841zm75.491 0-0.23049 8.3709c-0.12682 4.6039-0.33189 8.7483-0.45535 9.2099-0.12345 0.46161-0.3585 0.87601-0.52236 0.92047-0.30554 0.08292-6.8045-2.0831-10.632-3.5432-1.3781-0.52571-2.3327-1.1081-2.6774-1.6342-0.94564-1.4432-4.5042-12.45-4.1424-12.812 0.20534-0.20565 3.7163-0.36035 9.493-0.41873zm-22.76 2.5484c0.15583 0 0.48373 0.39025 0.72916 0.86685 0.81884 1.5902 3.976 11.806 3.7603 12.168-0.7367 1.236-13.465 17.906-14.408 18.869-0.89422 0.91396-1.4024 1.1814-2.2437 1.1814h-1.0875v-9.2176l1.6259-3.0321c0.89434-1.6679 3.1088-5.7979 4.921-9.1774 4.5814-8.5432 6.373-11.659 6.7032-11.659zm-30.472 0.08252c0.5631 0.17775 3.3151 4.8911 8.7659 15.013l4.9896 9.2661v8.7241h-1.2144c-1.0567 0-1.4184-0.21516-2.7789-1.6543-1.8545-1.9616-9.521-12.139-12.129-16.102-1.4419-2.191-1.797-2.9676-1.6579-3.6236 0.55577-2.6217 3.707-11.724 4.0243-11.624zm37.861 15.326 3.0069 0.78587c3.6731 0.95967 9.1361 2.909 9.6869 3.4565 0.32844 0.32655-0.51918 1.1078-4.5137 4.1615l-4.9179 3.7598 2.8826 0.1918v5.3222l-7.3261-0.0593c-10.033-0.0816-10.95-0.15216-10.95-0.84004 0-0.30402 0.44207-1.2499 0.98235-2.1019 0.99952-1.5761 8.6511-11.742 10.264-13.636zm-45.509 0.03193c0.51564 0 3.4992 3.6884 9.3548 11.564 3.0042 4.0405 3.5057 4.9828 2.9481 5.5404-0.22003 0.22001-3.4111 0.39085-9.0253 0.48266l-8.6849 0.14181 0.0923-2.6413 0.0923-2.6408 1.3578-0.15778 1.3583-0.15729-3.2487-2.4015c-4.498-3.3249-6.5573-4.9764-6.5573-5.2583 0-0.43458 11.116-4.4719 12.313-4.4719zm-39.727 42.224v9.1377h125.73v-9.1377h-62.863z" style="paint-order:stroke markers fill"/>
 </g>
</svg>
