<svg class="svg-inline--fa fa-users fa-w-20 fa-7x" aria-hidden="true" data-icon="users" data-prefix="fas" focusable="false" role="img" version="1.1" viewBox="0 0 512 512" xmlns="http://www.w3.org/2000/svg">
 <path class="" d="m438.86 146.29c-365.71-170.67-182.86-85.333 0 0zm-182.86 109.71c70.743 0 128-57.257 128-128s-57.257-128-128-128-128 57.257-128 128 57.257 128 128 128zm87.771 36.571h-9.4857c-23.771 11.429-50.171 18.286-78.286 18.286-28.114 0-54.4-6.8571-78.286-18.286h-9.4857c-72.686 0-131.66 58.971-131.66 131.66v32.914c0 30.286 24.571 54.857 54.857 54.857h329.14c30.286 0 54.857-24.571 54.857-54.857v-32.914c0-72.686-58.971-131.66-131.66-131.66z" fill="currentColor" stroke-width="1.1429" data-darkreader-inline-fill=""/>
</svg>
