<svg
   data-icon="m4"
   role="img"
   viewBox="0 0 512 512"
   xmlns:sodipodi="http://sodipodi.sourceforge.net/DTD/sodipodi-0.dtd"
   xmlns="http://www.w3.org/2000/svg"
   xmlns:svg="http://www.w3.org/2000/svg">
  <path
     fill="currentColor"
     d="M 35.36858,476.94762 2.4845895e-7,441.89524 3.5381002,438.76835 c 1.94596,-1.71979 18.0080498,-15.99224 35.6935398,-31.71656 17.68549,-15.72432 32.47173,-28.70288 32.8583,-28.84125 0.38659,-0.13838 14.91531,13.81856 32.28606,31.01542 l 31.58318,31.267 -29.88867,33.0094 C 89.63175,491.65753 74.95679,507.74661 73.4595,509.25588 L 70.73717,512 Z m 89.98465,-88.97846 -30.31056,-30.00829 14.63507,-14.50897 c 8.04929,-7.97993 15.09875,-14.50897 15.66546,-14.50897 1.33815,0 60.15436,58.21773 60.15436,59.54227 0,0.9867 -28.35322,29.49224 -29.33465,29.49224 -0.27452,0 -14.13887,-13.50373 -30.80968,-30.00828 z m 49.92737,-52.77381 -31.93916,-31.76231 -1.06889,-6.08645 c -0.58788,-3.34753 -3.56206,-11.47865 -6.60928,-18.06915 -15.39502,-33.2962 -21.54138,-68.80021 -17.87456,-103.25115 7.90238,-74.24552 57.36551,-137.629492 127.69158,-163.628953 72.33889,-26.7436 153.32098,-9.4453108 207.96112,44.421813 38.6707,38.12361 58.60734,85.57429 58.5585,139.37355 -0.0183,20.20451 0.0655,19.95318 -6.43683,19.28921 -2.846,-0.29062 -9.60982,-0.80782 -15.0307,-1.14934 l -9.85613,-0.62095 v -7.7787 c 0,-15.70638 -4.98543,-35.00427 -13.24061,-51.25249 -13.5014,-26.57408 -36.22975,-48.12297 -63.02119,-59.75075 -67.29065,-29.20491 -146.0741,2.547 -172.31936,69.44947 -7.00623,17.85974 -8.59088,26.48597 -8.63732,47.01822 -0.0458,20.23248 0.45055,23.26392 7.15689,43.71499 12.41153,37.84908 10.72141,62.62226 -6.079,89.1043 -4.17559,6.58188 -16.37692,22.741 -17.17112,22.741 -0.0797,0 -14.5174,-14.29304 -32.08394,-31.76231 z"
     class="fa-primary" />
</svg>
