<?xml version="1.0" encoding="UTF-8" standalone="no"?>
<svg
   viewBox="0 0 512 511.99998"
   version="1.1"
   id="svg4"
   sodipodi:docname="washer.svg"
   width="512"
   height="512"
   inkscape:version="1.1 (c68e22c387, 2021-05-23)"
   xmlns:inkscape="http://www.inkscape.org/namespaces/inkscape"
   xmlns:sodipodi="http://sodipodi.sourceforge.net/DTD/sodipodi-0.dtd"
   xmlns="http://www.w3.org/2000/svg"
   xmlns:svg="http://www.w3.org/2000/svg">
  <defs
     id="defs8" />
  <sodipodi:namedview
     id="namedview6"
     pagecolor="#505050"
     bordercolor="#ffffff"
     borderopacity="1"
     inkscape:pageshadow="0"
     inkscape:pageopacity="0"
     inkscape:pagecheckerboard="1"
     showgrid="false"
     inkscape:zoom="0.79170763"
     inkscape:cx="399.76879"
     inkscape:cy="191.35852"
     inkscape:window-width="1920"
     inkscape:window-height="1017"
     inkscape:window-x="-8"
     inkscape:window-y="-8"
     inkscape:window-maximized="1"
     inkscape:current-layer="svg4" />
  <path
     style="fill:#000000;stroke-width:1.06728"
     d="m 76.171174,510.0453 c -7.8291,-2.7052 -13.48914,-6.94941 -17.77253,-13.32674 -5.31442,-7.91244 -6.33675,-12.13536 -5.81506,-24.02014 0.37071,-8.44896 0.94977,-11.25077 3.22931,-15.6306 3.69038,-7.09067 9.56186,-12.57346 17.37008,-16.22024 l 6.40367,-2.99078 110.936846,-0.29568 c 61.01525,-0.16257 110.72378,-0.09 110.46336,0.16094 -0.26058,0.25132 -5.4529,2.64357 -11.53892,5.31648 -14.39982,6.32429 -26.21654,13.09884 -48.00875,27.52355 -29.16562,19.30532 -60.31544,33.30946 -87.39852,39.29212 -8.7113,1.92434 -13.50217,2.17423 -41.09026,2.14345 -27.221876,-0.0322 -31.941396,-0.28076 -36.779226,-1.95252 z m 10.72562,-43.84448 c 5.4356,-2.06661 4.44743,-8.90714 -1.47464,-10.20785 -6.83949,-1.50223 -11.51508,5.7819 -6.13168,9.55255 2.75324,1.92844 3.97977,2.03409 7.60632,0.6553 z M 191.73774,464.6016 c 1.90408,-2.60535 1.90408,-3.92396 0,-6.52932 -1.44837,-1.98177 -3.33737,-2.0835 -43.49161,-2.34216 -46.24203,-0.29769 -47.3139,-0.17062 -47.3139,5.60681 0,5.77766 1.07187,5.90469 47.3139,5.60679 40.15424,-0.25857 42.04324,-0.36022 43.49161,-2.34212 z m -4.81818,47.0565 c 0.25413,-0.2255 5.26501,-2.4324 11.13505,-4.9046 16.10225,-6.7816 28.96624,-13.9172 50.16209,-27.82477 28.64695,-18.79658 48.76949,-28.77083 72.04135,-35.70903 17.10526,-5.0997 20.43126,-5.3629 67.77224,-5.3629 h 44.8257 l 6.40368,2.99078 c 7.76694,3.62753 13.63581,9.08741 17.43517,16.22024 2.60427,4.88914 2.84251,6.36511 2.84284,17.61007 2.4e-4,10.66947 -0.32231,12.92837 -2.46672,17.28226 -3.43205,6.96769 -9.98804,13.36938 -17.11183,16.70914 l -6.03583,2.82975 -123.73299,0.28439 c -68.05312,0.1565 -123.52496,0.1 -123.27075,-0.12545 z m -49.44475,-94.94888 c -29.82362,-11.55428 -33.80278,-14.04096 -39.091576,-24.4296 -5.65367,-11.1052 -5.31818,-14.6293 5.617796,-59.00812 5.06171,-20.54073 10.18062,-40.28413 11.37535,-43.87431 4.22167,-12.68617 11.60229,-21.34466 23.54322,-27.61942 l 7.13596,-3.74986 0.62343,22.67586 c 1.4909,54.22853 1.73951,82.03113 0.72794,81.40593 -0.85811,-0.53032 -6.45175,6.78148 -6.45175,8.43353 0,0.27551 14.89694,8.97442 33.10427,19.33078 l 33.10427,18.82975 -2.80168,2.20379 c -4.15733,3.27014 -8.97563,10.37484 -8.97563,13.23473 v 2.50807 l -16.27602,-0.0581 -16.27598,-0.0581 -25.3596,-9.8248 z m 68.58438,9.30543 c 0,-1.97091 5.05851,-7.20063 8.89496,-9.19604 6.14671,-3.19699 16.92014,-3.15685 26.57377,0.0993 3.9522,1.33298 8.25911,3.29264 9.5709,4.35486 2.04183,1.65338 2.17922,2.17931 0.95488,3.65456 -1.23281,1.48545 -4.505,1.72324 -23.71231,1.72324 -12.2552,0 -22.2822,-0.286 -22.2822,-0.63568 z m 57.39398,-2.64407 c -0.39773,-2.71101 0.10001,-3.72325 2.8713,-5.83701 7.46489,-5.69376 16.33742,-7.26219 25.51951,-4.51117 4.4131,1.3222 14.53943,9.9337 14.53943,12.36448 0,0.93075 -5.58901,1.26347 -21.22443,1.26347 h -21.22445 z m 53.60305,0.84907 c 0,-2.82052 -2.07532,-6.1806 -7.09475,-11.48696 l -3.57419,-3.77851 6.13389,-3.52309 c 5.35993,-3.0786 6.538,-3.38142 9.33674,-2.39999 14.96628,5.24823 19.59839,6.55716 26.70007,7.54491 16.95564,2.35833 22.92948,1.15976 22.92948,-4.60035 0,-3.65161 -2.0618,-4.93804 -7.95125,-4.96114 -10.65692,-0.042 -31.53811,-4.12752 -31.53811,-6.17089 0,-0.43783 9.33944,-6.20792 20.75428,-12.8224 12.57779,-7.28841 21.01051,-12.83376 21.4047,-14.07578 1.25938,-3.96797 -2.77954,-8.17633 -6.48319,-6.75509 -0.92342,0.35457 -17.56389,9.9059 -36.97883,21.2257 -30.60933,17.84663 -35.64267,20.45106 -37.87982,19.60049 -3.92155,-1.49097 -15.28291,-1.17251 -21.23556,0.59522 -2.91906,0.86688 -7.60809,3.21185 -10.42006,5.21113 -4.97138,3.5345 -5.20611,3.58965 -8.49415,1.99508 -1.85983,-0.90192 -3.52817,-1.75265 -3.70743,-1.89048 -0.17911,-0.13796 3.75898,-2.42372 8.75163,-5.07966 12.7965,-6.80733 19.65861,-11.55352 28.3837,-19.63159 7.48466,-6.92968 16.66397,-18.55444 17.11127,-21.66991 0.52581,-3.66214 -0.1549,-5.45388 -2.38463,-6.27875 -3.74439,-1.38517 -5.91308,-0.22872 -8.79613,4.691 -5.96132,10.17218 -19.59452,22.38091 -34.22389,30.64805 -10.39424,5.87379 -24.81137,11.64686 -31.27713,12.52425 -5.37367,0.72924 -6.59107,0.51294 -11.09971,-1.97217 -4.03998,-2.22678 -5.06719,-3.35968 -5.07946,-5.60196 -0.0161,-2.55397 1.37396,-3.50324 15.19336,-10.39105 19.76011,-9.84879 32.52203,-19.05108 48.29556,-34.82461 19.77237,-19.77237 32.86922,-39.73937 43.05415,-65.63886 2.8855,-7.33754 6.34171,-17.66344 7.6805,-22.94648 1.33878,-5.283 2.82169,-10.04545 3.29538,-10.5832 0.93621,-1.06286 17.68745,1.05997 20.09229,2.54626 1.99395,1.23234 -1.24137,18.81746 -5.84378,31.76316 -4.52807,12.73644 -9.40189,21.33733 -17.65801,31.16102 -6.42312,7.64275 -6.60698,8.02543 -5.12806,10.67278 0.91144,1.63156 2.65586,2.87753 4.29863,3.07038 5.30979,0.62326 20.1737,-19.23539 26.95724,-36.01568 2.63024,-6.50641 7.30522,-24.57135 8.673,-33.51407 0.58442,-3.82119 0.82307,-4.05293 3.49534,-3.39424 1.57746,0.38885 5.62971,1.93978 9.00497,3.44652 7.18211,3.20612 7.08187,2.74695 4.45784,20.41903 -4.79867,32.31744 -20.35486,60.34138 -42.61306,76.76604 -3.52204,2.59894 -6.72787,5.58421 -7.12415,6.63388 -0.9968,2.64053 1.90843,6.42421 4.9327,6.42421 6.1723,0 27.36582,-20.22544 36.42644,-34.76262 9.64235,-15.4705 17.55253,-37.81996 19.25013,-54.3892 0.39249,-3.82981 1.09894,-7.20156 1.57012,-7.49276 1.18707,-0.73362 5.88507,7.54879 8.35667,14.73261 1.12931,3.28239 6.27024,23.17545 11.42428,44.20681 10.98451,44.8227 11.26397,47.76323 5.59586,58.87432 -5.31749,10.4238 -9.29539,12.91033 -39.12547,24.45703 l -25.50449,9.87231 H 333.2287 c -16.11782,0 -16.17248,-0.009 -16.17248,-2.4307 z m -124.60485,-36.1544 -5.60321,-3.24479 v -22.09637 c 0,-23.23612 -0.27954,-24.65788 -4.85078,-24.65788 -5.06367,0 -5.7483,2.50209 -6.06269,22.15744 l -0.29286,18.31157 -8.14765,-4.72355 -8.14765,-4.7236 -0.65057,-33.92148 c -0.3578,-18.65682 -0.92056,-44.30371 -1.25061,-56.9931 l -0.60007,-23.07163 4.80129,-1.20897 c 8.74256,-2.20142 8.12522,-3.72236 8.12522,20.01835 0,19.24635 0.18878,21.46048 2.02284,23.72546 1.74071,2.1497 2.44779,2.34877 5.06956,1.42728 l 3.04674,-1.07077 0.28721,-23.67738 0.28722,-23.67738 3.982,-0.63319 c 5.19128,-0.82543 10.97701,-2.20597 13.32066,-3.17844 1.7681,-0.73363 1.86777,3.10273 1.86777,71.91418 0,39.97905 -0.36022,72.66215 -0.80047,72.62911 -0.44024,-0.0322 -3.32192,-1.52022 -6.40368,-3.30486 z m 17.87695,-18.82531 v -10.45018 l 7.67196,-1.8005 c 14.86221,-3.48796 31.06421,-12.85124 43.863,-25.34875 7.50531,-7.32867 8.15383,-9.28768 4.14406,-12.51848 -2.72742,-2.19759 -4.02284,-1.62386 -11.60277,5.13871 -13.33925,11.90091 -28.72126,20.50454 -40.60761,22.71314 l -3.46864,0.64447 V 335.39167 323.165 l 2.93501,-0.59665 c 23.12176,-4.70008 40.15763,-12.01906 54.42381,-23.38166 15.25381,-12.14923 27.73418,-29.76459 34.51167,-48.71149 l 3.33052,-9.31068 5.49659,3.32007 c 3.02317,1.82607 5.6224,3.38299 5.77605,3.45984 0.70959,0.35498 -5.50059,21.91255 -8.6956,30.18553 -13.94533,36.10909 -37.23393,65.84405 -67.45678,86.12908 -9.13887,6.13389 -26.56304,15.43105 -28.91983,15.43105 -1.06167,0 -1.40144,-2.53375 -1.40144,-10.45015 z m 0,-94.51472 v -36.93401 l 2.69383,-1.76508 c 3.54624,-2.32359 14.23023,-15.68986 17.50565,-21.90056 l 2.58937,-4.90988 5.4152,2.46091 c 11.56864,5.25734 26.93875,5.86314 39.45975,1.55527 l 5.99141,-2.06135 2.25381,4.48067 c 1.23955,2.46438 4.08633,7.19002 6.32615,10.50146 l 4.07241,6.02079 -1.49485,5.7193 c -3.68529,14.10019 -11.71988,29.4961 -21.26391,40.74605 -13.59595,16.02616 -38.1346,29.64915 -58.20086,32.31102 l -5.34796,0.70943 z m 93.51055,-51.52289 c -2.59071,-3.30083 -5.96269,-8.47669 -7.49336,-11.50197 l -2.78301,-5.50054 7.39402,-7.55699 c 5.17065,-5.28457 7.82034,-7.28667 8.81181,-6.65808 2.30025,1.45822 11.41565,1.05943 14.70881,-0.64352 3.11236,-1.60949 7.51927,-7.63774 7.5231,-10.29097 10e-4,-0.81124 2.61374,-6.68274 5.8057,-13.04776 8.79456,-17.53724 9.05591,-26.68391 0.96537,-33.78749 l -3.76928,-3.30946 -0.29607,-13.01988 c -0.22065,-9.69991 -0.87159,-14.80849 -2.55349,-20.03417 -4.06604,-12.63329 -13.55852,-24.44578 -28.1255,-34.9996 -5.72438,-4.14733 -6.22901,-4.88007 -8.36789,-12.15088 -5.84641,-19.87411 -17.67374,-28.30166 -38.26575,-27.26626 -10.49197,0.52753 -17.73029,3.19982 -23.41352,8.64388 -4.05564,3.88501 -8.0961,11.25292 -9.18817,16.755 -1.8059,9.09843 -2.77733,10.5936 -10.81158,16.64035 -20.03506,15.0788 -27.58385,30.32696 -26.92766,54.39228 0.32875,12.05628 0.32472,12.07851 -2.47656,13.73044 -4.49229,2.64908 -6.63155,8.39629 -5.94471,15.97074 0.44783,4.93876 2.00787,9.3722 6.605,18.77053 3.31027,6.76753 6.82816,13.98554 7.81757,16.04005 2.28394,4.74263 9.45146,8.53825 16.1233,8.53825 4.35075,0 5.22899,0.46703 9.37937,4.98764 2.51851,2.74319 4.57463,5.50478 4.56914,6.13683 -0.0202,2.38101 -6.45067,12.24605 -11.78873,18.08672 l -5.5419,6.06367 -6.00476,-3.35992 c -21.77818,-12.18595 -42.05905,-34.80921 -51.46952,-57.41419 -11.19435,-26.89003 -12.49627,-58.17764 -3.53609,-84.9807 20.16696,-60.3264 83.49738,-94.62408 144.83215,-78.4363197 20.18032,5.32609 36.82378,14.8882797 52.88997,30.3869797 25.0951,24.20864 37.70612,56.02237 36.14996,91.19506 -1.55242,35.08814 -17.80577,66.99478 -45.25291,88.83512 -6.33946,5.04448 -22.18079,14.78658 -24.04398,14.78658 -0.44585,0 -2.93032,-2.70064 -5.52099,-6.00142 z m -54.44336,-19.17908 c -17.21244,-4.16491 -31.47563,-19.20247 -34.78993,-36.67859 -1.43131,-7.54738 -1.37235,-47.49203 0.0778,-52.71464 0.66881,-2.40855 3.08514,-6.05419 5.836,-8.80504 4.13264,-4.13269 5.25972,-4.69468 9.41471,-4.69468 3.25262,0 7.32608,1.24431 13.10226,4.00231 7.87489,3.76003 8.99887,4.00226 18.57146,4.00226 9.6033,0 10.69637,-0.23799 19.00647,-4.13445 10.07028,-4.72206 15.4336,-4.85252 20.1054,-0.48893 5.55722,5.19049 6.08238,7.49497 6.53206,28.66328 0.55058,25.91627 -0.74702,36.58509 -5.66386,46.56922 -6.39162,12.97866 -18.60616,22.15671 -33.02207,24.81281 -7.95641,1.46598 -11.29043,1.37315 -19.17032,-0.53355 z m -46.21203,-24.18116 c -1.19929,-1.32075 -2.49039,-3.71236 -2.86913,-5.31467 -0.37877,-1.60227 -2.16897,-5.42403 -3.97839,-8.49274 -7.22212,-12.24879 -9.1227,-20.85279 -5.21135,-23.59239 1.88096,-1.31748 2.70761,-1.22737 6.78668,0.73993 l 4.64485,2.24017 0.52073,12.27368 c 0.35457,8.35942 1.20074,14.23088 2.65311,18.41055 2.30779,6.64142 1.35771,8.03511 -2.5465,3.73547 z m 110.48386,1.85861 c -0.29851,-0.29849 0.33036,-3.12858 1.39714,-6.28902 1.10365,-3.26912 2.25023,-10.85588 2.65982,-17.59932 l 0.71991,-11.85311 4.8102,-2.68846 c 5.23246,-2.92447 8.06359,-2.71439 9.90982,0.73532 2.09734,3.91894 0.0472,10.04606 -9.04457,27.03094 -0.94265,1.761 -1.71687,3.93546 -1.72049,4.8321 -0.0161,4.12671 -6.26423,8.29917 -8.73183,5.83155 z M 199.81001,131.53039 c -2.37883,-3.01358 -2.49031,-3.84317 -2.07782,-15.45817 0.37434,-10.53885 0.84626,-13.16704 3.33886,-18.59348 4.19166,-9.12521 9.38648,-15.41957 18.96598,-22.98018 10.43272,-8.23401 12.24317,-10.73752 14.35729,-19.85336 2.12623,-9.16806 3.87895,-12.52676 8.21804,-15.74816 4.94961,-3.6746 9.70838,-5.00871 17.77052,-4.98188 13.54453,0.0451 20.58642,5.79953 25.06505,20.48268 2.91676,9.56255 4.69354,11.81689 15.28177,19.389 13.53686,9.68082 20.98614,21.89717 22.96505,37.66138 1.37504,10.95366 0.64089,16.29418 -2.7879,20.2804 l -2.45792,2.8575 -0.56989,-11.16655 c -0.68809,-13.4818 -3.23027,-20.30136 -9.83859,-26.3927 -8.62909,-7.95403 -18.34629,-8.51518 -31.8565,-1.83966 -10.96732,5.41906 -17.04671,5.30737 -29.75532,-0.54679 -15.09177,-6.95194 -24.69704,-5.82841 -34.17993,3.99807 -6.17394,6.39767 -8.61368,13.05357 -9.31809,25.42096 l -0.60689,10.65543 z"
     id="path833" />
</svg>
