<?xml version="1.0" encoding="UTF-8" standalone="no"?>
<!-- Created with Inkscape (http://www.inkscape.org/) -->

<svg
   width="512"
   height="512"
   viewBox="0 0 135.46666 135.46667"
   version="1.1"
   id="svg5"
   inkscape:version="1.1 (c68e22c387, 2021-05-23)"
   sodipodi:docname="drawing.svg"
   xmlns:inkscape="http://www.inkscape.org/namespaces/inkscape"
   xmlns:sodipodi="http://sodipodi.sourceforge.net/DTD/sodipodi-0.dtd"
   xmlns="http://www.w3.org/2000/svg"
   xmlns:svg="http://www.w3.org/2000/svg">
  <sodipodi:namedview
     id="namedview7"
     pagecolor="#505050"
     bordercolor="#ffffff"
     borderopacity="1"
     inkscape:pageshadow="0"
     inkscape:pageopacity="0"
     inkscape:pagecheckerboard="1"
     inkscape:document-units="px"
     showgrid="false"
     units="px"
     inkscape:zoom="1.1849563"
     inkscape:cx="165.8289"
     inkscape:cy="413.09541"
     inkscape:window-width="1920"
     inkscape:window-height="1017"
     inkscape:window-x="-8"
     inkscape:window-y="-8"
     inkscape:window-maximized="1"
     inkscape:current-layer="layer1" />
  <defs
     id="defs2" />
  <g
     inkscape:label="Calque 1"
     inkscape:groupmode="layer"
     id="layer1">
    <path
       style="fill:#000000;stroke-width:0.264583"
       id="path4886"
       d="" />
    <path
       style="fill:#000000;stroke-width:0.264583"
       id="path4866"
       d="" />
    <path
       style="fill:#000000;fill-opacity:1;stroke-width:0.371749;stroke-linecap:square;paint-order:stroke markers fill"
       d="m 18.149556,135.08849 c -3.742163,-0.72033 -6.707018,-3.13311 -8.6173445,-7.01275 l -1.18596,-2.40852 V 67.852232 10.037244 L 9.2756275,7.6758704 C 10.372124,4.8898714 12.739353,2.2975248 15.436267,0.92936669 L 17.268252,-8.8083974e-6 H 63.365269 109.46227 L 111.71899,1.2111238 c 2.54964,1.3683465 3.72748,2.5051769 5.10033,4.9227449 1.35782,2.3910767 1.75083,5.2019193 1.75083,12.5219043 v 6.437351 h 3.1966 c 3.09662,0 3.23034,0.03611 4.27513,1.154563 l 1.07853,1.154567 v 6.073832 c 0,5.884144 -0.028,6.106407 -0.89695,7.116876 -0.84045,0.977363 -1.10965,1.051222 -4.27513,1.172967 l -3.37818,0.129926 v 8.653668 8.653665 l 3.39867,0.162494 c 3.14744,0.150478 3.46342,0.237803 4.27511,1.181449 0.84418,0.981405 0.87648,1.244917 0.87648,7.149008 0,6.012774 -0.0174,6.147501 -0.91249,7.042519 -0.8343,0.834306 -1.20057,0.91248 -4.27513,0.91248 h -3.36264 v 8.922003 8.922 h 2.95651 c 3.33496,0 4.58202,0.416738 5.181,1.731361 0.24396,0.535435 0.41275,3.189034 0.41275,6.489088 0,7.71023 -0.25833,8.10643 -5.29744,8.12474 l -3.25282,0.0118 v 6.43734 c 0,5.6202 -0.30349,9.20166 -0.97425,11.49677 -0.37576,1.28573 -3.17975,4.40595 -5.07857,5.65134 -1.21434,0.79647 -2.76477,1.42056 -4.14565,1.66879 -2.73521,0.49166 -87.662399,0.47482 -90.222124,-0.0179 z m 71.528977,-33.58053 c 1.45385,-0.65318 2.61555,-1.639884 3.18629,-2.706324 0.62732,-1.17217 0.54335,-9.541229 -0.11761,-11.719381 -1.40345,-4.625091 -5.95959,-8.720598 -11.447288,-10.289935 -4.108234,-1.174855 -6.479951,-1.284494 -8.98259,-0.415247 -3.710248,1.288685 -8.244113,1.71646 -12.527104,1.181944 -2.041091,-0.254733 -4.49737,-0.801828 -5.458399,-1.215767 -1.423612,-0.613185 -2.181257,-0.706725 -4.089493,-0.504901 -5.545788,0.586563 -9.441326,2.34938 -12.647714,5.723372 -3.255151,3.425298 -4.527001,6.731643 -4.527001,11.76855 0,4.108706 0.272432,5.212865 1.61825,6.558675 2.200576,2.200584 1.205771,2.126094 28.598388,2.141904 21.20085,0.0122 25.387761,-0.0708 26.394251,-0.52289 z M 70.61439,66.271265 c 1.703922,-0.792299 3.189919,-1.908065 5.039904,-3.784219 3.479291,-3.528512 4.678657,-6.306923 4.90872,-11.371414 0.142437,-3.135564 0.05133,-3.820243 -0.812363,-6.105185 -1.115781,-2.951833 -2.514354,-5.200512 -4.11763,-6.620481 -0.613382,-0.543256 -1.5845,-1.401163 -2.15803,-1.906453 -0.573531,-0.505291 -2.162763,-1.389558 -3.531632,-1.965035 -2.219319,-0.933017 -2.931685,-1.046326 -6.57809,-1.046326 -3.652114,0 -4.357016,0.112535 -6.594064,1.052716 -3.390489,1.424949 -7.099913,4.869876 -8.770659,8.145273 -2.381687,4.669124 -2.402995,11.035648 -0.05227,15.620555 2.343519,4.570917 7.650768,8.629749 12.071274,9.231764 3.602728,0.490647 7.953987,-0.0232 10.594874,-1.251195 z"
       id="path4943" />
  </g>
</svg>
