box <svg aria-hidden="true" focusable="false" data-prefix="fas" data-icon="box" class="svg-inline--fa fa-box" role="img" xmlns="http://www.w3.org/2000/svg" viewBox="0 0 448 512"><path fill="currentColor" d="M447.6 158.8l-56.38-104.9C386.9 40.75 374.8 32 360.9 32H240v128h206.8C447.1 159.5 447.3 159.3 447.6 158.8zM0 192v240C0 458.5 21.49 480 48 480h352c26.51 0 48-21.49 48-48V192H0zM208 160V32H87.13c-13.88 0-26 8.75-30.38 21.88L.375 158.8C.75 159.3 .875 159.5 1.25 160H208z"></path></svg>

burger
<svg
   viewBox="0 0 135.46666 135.46667"
   xmlns="http://www.w3.org/2000/svg"
   xmlns:svg="http://www.w3.org/2000/svg">
   <g class="fa-group">
      <path
         fill="currentColor"
         d="M 23.146953,134.98815 C 11.344912,132.88097 2.2926319,123.73766 0.38100794,111.99325 c -0.76627188,-4.70773 -0.34313181,-6.61136 1.72836566,-7.7756 l 0.9972229,-0.56048 H 67.71873 c 63.7236,0 64.62616,0.007 65.63225,0.52043 0.71835,0.36647 1.19585,0.88345 1.61421,1.74765 0.52588,1.08634 0.57461,1.48053 0.4245,3.43344 -0.44493,5.78848 -2.24057,10.5575 -5.68203,15.09086 -3.18227,4.19194 -7.6593,7.49482 -12.49775,9.22006 -5.11759,1.82476 -2.85943,1.74662 -49.716706,1.72028 -35.353882,-0.0199 -42.573831,-0.0853 -44.346251,-0.40174 z M 12.495126,94.726305 C 10.229175,91.426934 8.4973431,86.528177 8.0509923,82.155408 7.9044525,80.719776 7.9408399,80.369104 8.23632,80.369104 c 0.3916696,0 1.6840725,0.815756 5.16325,3.258993 3.879919,2.724644 7.386592,3.886211 11.732166,3.886211 4.505967,0 8.10711,-1.255316 12.306954,-4.290063 4.170098,-3.013243 6.621357,-3.876199 10.135132,-3.568016 2.648118,0.232257 3.972268,0.807494 7.257566,3.152792 4.882063,3.485198 8.228854,4.705287 12.906926,4.705287 4.678081,0 8.024872,-1.220089 12.906935,-4.705287 1.640674,-1.171239 3.546062,-2.324783 4.234192,-2.563442 2.861222,-0.992302 6.779879,-0.768006 9.351772,0.535269 0.680718,0.34495 2.351908,1.422099 3.713735,2.393657 4.349392,3.102951 7.883392,4.339803 12.399952,4.339803 4.4841,0 8.42611,-1.386682 12.57026,-4.42185 2.55537,-1.871551 3.91983,-2.723354 4.36242,-2.723354 0.24947,0 0.28573,0.437499 0.14805,1.786304 -0.39421,3.861985 -1.85717,8.318832 -3.768,11.479005 l -1.01986,1.686693 -54.8212,0.06681 -54.821212,0.06681 z M 6.6071386,79.839837 C 6.2432645,79.723303 5.3155958,79.616081 4.5456592,79.601578 2.652274,79.565871 1.2030132,78.795974 0.52404303,77.465083 -0.51810296,75.422308 0.1842099,73.146955 2.1694968,72.134139 3.1245201,71.64692 3.5644596,71.588768 5.2754176,71.723565 c 1.0963231,0.08632 2.3560693,0.231137 2.7994295,0.321706 0.801093,0.163633 0.8113751,0.150911 1.6479553,-2.040885 0.4630036,-1.213047 1.3506646,-3.098694 1.9725706,-4.190323 l 1.13074,-1.984777 54.842326,-0.06678 54.842331,-0.06678 0.6292,0.996721 c 1.0235,1.621321 2.07042,3.783366 2.72159,5.62046 0.68795,1.940874 0.26952,1.797235 4.20762,1.444393 1.87848,-0.168304 2.25537,-0.124425 3.23824,0.376997 1.98499,1.012666 2.68724,3.288159 1.64516,5.330794 -0.6873,1.347234 -1.98199,1.997237 -4.36294,2.190416 -1.01885,0.08272 -2.10219,0.226626 -2.40741,0.319915 -0.52803,0.161393 -0.56345,0.04991 -0.73019,-2.298557 -0.22546,-3.175536 -0.69378,-5.081944 -1.27578,-5.193307 -0.89592,-0.171445 -4.40181,1.605947 -7.4441,3.773948 -3.83036,2.729605 -5.02924,3.184858 -8.38726,3.184858 -3.32102,0 -4.49065,-0.436029 -8.2155,-3.062653 -4.919691,-3.469176 -7.378461,-4.411498 -12.173697,-4.665569 -5.046286,-0.267385 -8.704861,0.881299 -13.352036,4.192122 -3.423126,2.438766 -4.08206,2.807671 -5.826665,3.262084 -1.986444,0.517405 -4.090922,0.517405 -6.077367,0 -1.755877,-0.457353 -2.532915,-0.891892 -5.562021,-3.110403 -4.545975,-3.329457 -8.564782,-4.611488 -13.61669,-4.343803 -4.754667,0.251921 -7.319339,1.236831 -12.167365,4.67262 -3.723307,2.638687 -4.883834,3.061043 -8.35414,3.040339 -3.376866,-0.02011 -4.311377,-0.387179 -8.525524,-3.348412 C 13.292808,73.843365 9.9446275,72.209712 9.160838,72.510484 8.6922627,72.6903 8.2926114,74.598148 8.0551431,77.788907 7.8758466,80.197987 7.848111,80.237275 6.6071386,79.839845 Z M 2.2204342,54.95882 C 1.5250317,54.614596 0.92368333,54.036943 0.52818988,53.333257 -0.04355943,52.315965 -0.07416066,52.046665 0.07860442,49.376696 0.89247598,35.152121 9.278492,21.975865 23.496004,12.582891 33.376584,6.0551565 45.200559,1.9499274 58.608336,0.39204653 62.860951,-0.10207599 73.903638,-0.01550738 78.19149,0.54556576 102.72061,3.7552527 122.34692,15.948107 131.06942,33.396013 c 2.53086,5.062535 3.95926,10.2933 4.31026,15.784063 0.16445,2.572374 0.12954,2.921242 -0.40227,4.019809 -0.43409,0.896705 -0.86907,1.341763 -1.70854,1.748148 l -1.1262,0.545182 -64.42174,-2.09e-4 C 3.6431156,55.4928 3.2934145,55.489905 2.2204342,54.95882 Z M 29.445234,39.191775 c 1.171518,-0.585406 9.104142,-8.483568 9.730889,-9.688617 0.653393,-1.256294 0.646792,-2.344992 -0.0222,-3.656286 -0.878489,-1.721974 -3.077036,-2.535014 -4.941165,-1.827273 -0.962646,0.365486 -9.470877,8.812697 -10.000495,9.928775 -1.562507,3.292748 1.997687,6.860057 5.232945,5.243401 z m 24.081979,0 c 1.171518,-0.585406 9.104142,-8.483568 9.730889,-9.688617 0.653403,-1.256294 0.646792,-2.344992 -0.0222,-3.656286 -0.878489,-1.721974 -3.077036,-2.535014 -4.941155,-1.827273 -0.962656,0.365486 -9.470887,8.812697 -10.000505,9.928775 -1.562508,3.292748 1.997687,6.860057 5.232945,5.243401 z m 23.817345,0 c 1.171518,-0.585406 9.104142,-8.483568 9.730889,-9.688617 0.653393,-1.256294 0.646792,-2.344992 -0.0222,-3.656286 -0.878489,-1.721974 -3.077036,-2.535014 -4.941155,-1.827273 -0.962656,0.365486 -9.470887,8.812697 -10.000505,9.928775 -1.562508,3.292748 1.997687,6.860057 5.232945,5.243401 z m 21.537561,0.14577 c 0.409733,-0.152592 2.861431,-2.385468 5.448201,-4.961946 5.13839,-5.117929 5.50539,-5.687651 4.96253,-7.703659 -0.3385,-1.257092 -1.75677,-2.577745 -3.02348,-2.815383 -1.93873,-0.363706 -2.41205,-0.05467 -7.258375,4.738993 -2.522113,2.494703 -4.754987,4.857399 -4.961949,5.250435 -0.206952,0.393037 -0.376287,1.238804 -0.376287,1.879486 0,2.674582 2.69989,4.546635 5.20936,3.612074 z"
         class="fa-primary"/>
   </g>
</svg>

bottle
<svg
   viewBox="0 0 135.46666 135.46667"
   xmlns="http://www.w3.org/2000/svg"
   xmlns:svg="http://www.w3.org/2000/svg">
   <g class="fa-group">
      <path
         fill="currentColor"
         d="m 35.329885,135.19926 c -0.66584,-0.1888 -1.73854,-0.65655 -2.38378,-1.03944 -0.64902,-0.38513 -7.98843,-7.5351 -16.42715,-16.00314 C -0.82800946,100.74945 0.01543854,101.8016 0.00391054,97.555065 c -0.0056,-2.05286 0.09451,-2.59934 0.723216,-3.948745 0.90373296,-1.939714 5.05736196,-6.264488 8.53226296,-8.883818 2.1486365,-1.619612 3.6419975,-2.515564 9.4467385,-5.667634 2.752297,-1.494541 5.904407,-3.956332 9.237327,-7.214331 l 3.05703,-2.988307 17.78827,17.792945 17.78826,17.792935 -3.02015,3.09165 c -3.29984,3.37797 -5.69446,6.43664 -7.18261,9.17442 -3.15365,5.80185 -4.05005,7.29447 -5.67046,9.44202 -2.59401,3.43788 -6.95355,7.63039 -8.82468,8.48661 -1.81351,0.82983 -4.73058,1.08213 -6.54923,0.56645 z m 18.95692,-54.18965 -17.74414,-17.736752 9.13568,-9.133988 9.13567,-9.133988 17.81292,17.802562 17.81291,17.802563 -9.06984,9.068178 c -4.98842,4.987498 -9.13043,9.068178 -9.20446,9.068178 -0.0741,0 -8.11947,-7.98154 -17.87874,-17.736753 z m 24.03607,-23.924186 -17.74737,-17.771588 2.63901,-3.033897 c 3.08634,-3.548141 5.30401,-6.801137 7.76767,-11.394045 3.0797,-5.741367 5.20581,-8.204026 9.26718,-10.7341 3.68355,-2.294712 8.97676,-3.57192 13.17406,-3.178797 l 1.95528,0.183133 14.548485,14.543038 14.5485,14.543038 -0.0169,3.374441 c -0.0243,4.868769 -0.99607,8.248157 -3.47258,12.076724 -2.41919,3.739928 -4.82947,5.76723 -10.41595,8.760861 -4.55657,2.441734 -7.82265,4.659962 -11.432835,7.764874 l -3.06721,2.637906 z M 115.47076,19.856452 106.46874,10.856016 111.89462,5.4280079 117.32049,1.3185747e-6 126.39358,9.0657021 l 9.07308,9.0657009 -5.36063,5.362742 c -2.94835,2.949508 -5.42197,5.362743 -5.49695,5.362743 -0.075,0 -4.18722,-4.050197 -9.13832,-9.000436 z"
         class="fa-primary" />
   </g>
</svg>

check
<svg aria-hidden="true" focusable="false" data-prefix="fas" data-icon="check" class="svg-inline--fa fa-check" role="img" xmlns="http://www.w3.org/2000/svg" viewBox="0 0 512 512"><path fill="currentColor" d="M480 128c0 8.188-3.125 16.38-9.375 22.62l-256 256C208.4 412.9 200.2 416 192 416s-16.38-3.125-22.62-9.375l-128-128C35.13 272.4 32 264.2 32 256c0-18.28 14.95-32 32-32c8.188 0 16.38 3.125 22.62 9.375L192 338.8l233.4-233.4C431.6 99.13 439.8 96 448 96C465.1 96 480 109.7 480 128z"></path></svg>

mark cross
<svg aria-hidden="true" focusable="false" data-prefix="fas" data-icon="xmark" class="svg-inline--fa fa-xmark" role="img" xmlns="http://www.w3.org/2000/svg" viewBox="0 0 320 512"><path fill="currentColor" d="M310.6 361.4c12.5 12.5 12.5 32.75 0 45.25C304.4 412.9 296.2 416 288 416s-16.38-3.125-22.62-9.375L160 301.3L54.63 406.6C48.38 412.9 40.19 416 32 416S15.63 412.9 9.375 406.6c-12.5-12.5-12.5-32.75 0-45.25l105.4-105.4L9.375 150.6c-12.5-12.5-12.5-32.75 0-45.25s32.75-12.5 45.25 0L160 210.8l105.4-105.4c12.5-12.5 32.75-12.5 45.25 0s12.5 32.75 0 45.25l-105.4 105.4L310.6 361.4z"></path></svg>

